<?xml version="1.0" encoding="UTF-8" standalone="no"?>
<svg
   id="Layer_1"
   data-name="Layer 1"
   viewBox="0 0 1820.0001 390"
   version="1.1"
   sodipodi:docname="Logo Clean White.svg"
   inkscape:export-filename="Logo Clean White.png"
   inkscape:export-xdpi="96"
   inkscape:export-ydpi="96"
   width="1820"
   height="390"
   inkscape:version="1.3.2 (091e20e, 2023-11-25, custom)"
   xmlns:inkscape="http://www.inkscape.org/namespaces/inkscape"
   xmlns:sodipodi="http://sodipodi.sourceforge.net/DTD/sodipodi-0.dtd"
   xmlns="http://www.w3.org/2000/svg"
   xmlns:svg="http://www.w3.org/2000/svg">
  <sodipodi:namedview
     id="namedview18"
     pagecolor="#ffffff"
     bordercolor="#000000"
     borderopacity="0.25"
     inkscape:showpageshadow="2"
     inkscape:pageopacity="0.0"
     inkscape:pagecheckerboard="0"
     inkscape:deskcolor="#d1d1d1"
     inkscape:zoom="0.52178141"
     inkscape:cx="921.84196"
     inkscape:cy="332.51472"
     inkscape:window-width="1920"
     inkscape:window-height="1051"
     inkscape:window-x="-9"
     inkscape:window-y="-9"
     inkscape:window-maximized="1"
     inkscape:current-layer="Layer_1" />
  <defs
     id="defs1">
    <style
       id="style1">
      .cls-1 {
        fill: #caf240;
      }
    </style>
  </defs>
  <path
     d="M 278.56301,201.87879 237.38447,7.30256 C 236.52388,3.23368 232.52111,0.27773 227.86788,0.27773 H 9.68671 C 4.34301,0.27773 0,4.13293 0,8.89628 V 381.38145 C 0,386.1359 4.333,390 9.68671,390 h 130.09014 c 5.3437,0 9.68671,-3.85519 9.68671,-8.61855 V 167.59156 l 52.93668,215.63291 C 203.37091,387.1776 207.30363,390 211.85679,390 H 353.06463 L 405.48094,176.49502 V 390 h 162.6527 L 562.12948,13.17885 c 0,-6.97142 -3.63252,-11.19164 -11.34786,-12.39362 -1.95136,-0.30272 -3.80264,-0.49859 -5.52383,-0.49859 H 329.25813 c -4.65322,0 -8.656,2.94704 -9.51659,7.02483 l -41.17853,194.57622 z"
     id="path1"
     style="fill:#f4f3ef;stroke-width:0.943912;fill-opacity:1"
     inkscape:export-filename="test 2.png"
     inkscape:export-xdpi="96"
     inkscape:export-ydpi="96" />
  <path
     d="m 661.3875,390 h 129.3798 c 4.9831,0 9.0195,-4.2915 9.0195,-9.58965 V 339.9413 c 0,-20.89237 -1.8521,-47.70101 -3.3138,-57.98826 -1.47,-10.28723 -3.9367,-8.59183 -0.4984,-15.43527 C 796.7305,265.01663 873.5461,117.4278 899.8905,66.81281 903.8189,59.26294 898.6862,50 890.5636,50 H 785.4435 c -4.6924,0 -8.8783,3.1524 -10.4314,7.85893 L 734.5571,180.55527 701.0701,57.02004 C 699.7828,52.83451 696.1118,50 691.9675,50 l -121.19911,0.72408 c -7.07611,0 -9.16904,8.43289 -6.5944,15.43529 5.89675,16.05339 12.82337,39.51536 20.92103,50.76511 12.4081,17.25431 25.04875,36.26583 34.59154,62.65063 9.54278,26.38479 38.19604,86.49232 41.69264,92.92074 V 390"
     id="path2"
     style="fill:#f4f3ef;stroke-width:0.856376;fill-opacity:1" />
  <path
     class="cls-1"
     d="m 1353.1475,378.34417 c -3.022,-7.23002 -6.3844,-18.03473 -8.2056,-33.00544 -6.4545,-53.12767 2.882,-136.72533 -71.0493,-152.00065 40.328,-15.27532 68.6376,-51.04018 68.6376,-92.7091 0,-27.79124 -12.5787,-52.94848 -32.9228,-71.15344 C 1289.2633,11.27058 1261.1638,0 1230.1323,0 H 950.9689 c -5.3237,0 -9.6267,3.86138 -9.6267,8.61868 v 372.75368 c 0,4.76626 4.313,8.61868 9.6267,8.61868 h 154.2268 c 5.3137,0 9.6267,-3.86138 9.6267,-8.61868 V 260.22697 h 26.008 c 12.6288,0 23.2361,8.50222 24.6071,19.74592 1.8213,14.84528 4.4331,35.97092 7.0449,55.9677 4.0328,30.88213 7.6152,43.91768 16.3413,51.39855 2.0014,1.7112 4.6532,2.66086 7.4151,2.66086 h 147.8925 c 6.7247,0 11.3779,-6.00262 9.0162,-11.63792 z m -180.455,-221.89084 c -12.1884,9.01289 -25.6177,12.04107 -37.9563,11.90669 -6.1843,-0.0716 -9.1463,-0.6809 -12.3285,-5.10671 -3.5325,-4.91856 -5.2036,-11.30642 -4.9334,-22.61285 0.4703,-19.1367 0.4703,-44.21332 1.571,-46.86522 2.3617,-5.6353 7.0049,-7.66006 28.3797,-5.06191 16.5114,2.00684 35.1444,6.96125 40.9984,21.19731 4.6632,11.36017 0.3002,34.69872 -15.7209,46.55165 z"
     id="path3"
     style="stroke-width:0.946859" />
  <path
     class="cls-1"
     d="M 1686.8287,195.16574 1815.5179,13.23264 C 1819.5807,7.48984 1814.9675,0 1807.3823,0 h -163.6834 c -3.2723,0 -6.2444,1.68432 -7.6553,4.32726 L 1585.9288,98.88195 1537.4552,0 h -172.4394 c -7.4352,0 -12.0684,7.23002 -8.3058,12.98178 l 119.1526,182.18396 -130.4704,181.54786 c -4.1229,5.73385 0.4803,13.2864 8.0956,13.2864 h 157.8894 c 4.0728,0 7.9755,-1.38867 10.9776,-3.85242 23.5263,-19.32486 39.7675,-54.77614 56.6893,-93.45271 l 48.9038,92.37761 c 1.5911,3.01026 4.9835,4.92752 8.7061,4.92752 h 173.7003 c 7.6353,0 12.2385,-7.57942 8.0756,-13.31327 z"
     id="path4"
     style="stroke-width:0.946859" />
</svg>
