<?xml version="1.0" encoding="UTF-8" standalone="no"?>
<svg
   id="Layer_1"
   data-name="Layer 1"
   viewBox="0 0 770.00006 582.17455"
   version="1.1"
   sodipodi:docname="Logo Block Black.svg"
   inkscape:export-filename="..\Final\Logo Icon Black.png"
   inkscape:export-xdpi="96"
   inkscape:export-ydpi="96"
   width="770"
   height="582.17456"
   inkscape:version="1.3.2 (091e20e, 2023-11-25, custom)"
   xmlns:inkscape="http://www.inkscape.org/namespaces/inkscape"
   xmlns:sodipodi="http://sodipodi.sourceforge.net/DTD/sodipodi-0.dtd"
   xmlns="http://www.w3.org/2000/svg"
   xmlns:svg="http://www.w3.org/2000/svg">
  <sodipodi:namedview
     id="namedview18"
     pagecolor="#ffffff"
     bordercolor="#000000"
     borderopacity="0.25"
     inkscape:showpageshadow="2"
     inkscape:pageopacity="0.0"
     inkscape:pagecheckerboard="0"
     inkscape:deskcolor="#d1d1d1"
     inkscape:zoom="1.0435628"
     inkscape:cx="418.75773"
     inkscape:cy="291.78885"
     inkscape:window-width="1920"
     inkscape:window-height="1051"
     inkscape:window-x="-9"
     inkscape:window-y="-9"
     inkscape:window-maximized="1"
     inkscape:current-layer="Layer_1" />
  <defs
     id="defs1">
    <style
       id="style1">
      .cls-1 {
        fill: #caf240;
      }
    </style>
  </defs>
  <path
     d="M 250.19393,176.25468 226.24149,63.074968 c -0.50058,-2.366753 -2.82889,-4.086151 -5.53554,-4.086151 H 93.795882 c -3.108284,0 -5.634496,2.242463 -5.634496,5.013174 V 280.66651 c 0,2.76553 2.520389,5.01317 5.634496,5.01317 h 75.669908 c 3.10828,0 5.63449,-2.24245 5.63449,-5.01317 V 156.31073 l 30.79183,125.42781 c 0.56461,2.29943 2.85217,3.94114 5.50062,3.94114 h 82.13676 L 324.01864,161.48963 V 285.67968 H 418.6293 L 415.13684,66.493051 c 0,-4.055088 -2.11293,-6.509874 -6.60074,-7.209033 C 407.40105,59.107933 406.32421,58.994 405.32304,58.994 H 279.6819 c -2.70665,0 -5.03496,1.714215 -5.53554,4.086151 L 250.19393,176.25986 Z"
     id="path1"
     style="fill:#121721;fill-opacity:1;stroke-width:0.549048"
     inkscape:export-filename="Logo Block Black.png"
     inkscape:export-xdpi="96"
     inkscape:export-ydpi="96" />
  <path
     d="m 472.87254,285.67968 h 75.25672 c 2.89853,0 5.2464,-2.49625 5.2464,-5.57804 V 256.5619 c 0,-12.15253 -1.07732,-27.74639 -1.92755,-33.7302 -0.85506,-5.98381 -2.28987,-4.99763 -0.28991,-8.97828 0.43969,-0.87317 45.12124,-86.72159 60.44506,-116.162956 2.28504,-4.391555 -0.70051,-9.779551 -5.42521,-9.779551 h -61.1455 c -2.72945,0 -5.16427,1.833664 -6.06767,4.571321 L 515.43331,163.85136 495.95483,91.994275 c -0.74879,-2.434603 -2.88411,-4.083362 -5.29474,-4.083362 l -70.49823,0.421173 c -4.11598,0 -5.33338,4.905183 -3.83578,8.978291 3.42998,9.337823 7.45901,22.985013 12.16919,29.528683 7.21746,10.03637 14.57018,21.09485 20.12097,36.44217 5.55077,15.34732 22.21759,50.31024 24.25147,54.04948 v 68.34897"
     id="path2"
     style="fill:#121721;fill-opacity:1;stroke-width:0.498131" />
  <path
     class="cls-1"
     d="m 389.20533,485.13457 c -1.75782,-4.20549 -3.71363,-10.49029 -4.77298,-19.19834 -3.75441,-30.90294 1.67639,-79.5294 -41.32744,-88.41468 23.45769,-8.88522 39.92462,-29.68867 39.92462,-53.92635 0,-16.16541 -7.31668,-30.79869 -19.1503,-41.38802 -11.83361,-10.58933 -28.17832,-17.14513 -46.22851,-17.14513 H 155.26895 c -3.09665,0 -5.59959,2.24606 -5.59959,5.01326 v 216.82068 c 0,2.77243 2.50876,5.01327 5.59959,5.01327 h 89.70955 c 3.09083,0 5.59959,-2.24607 5.59959,-5.01327 v -70.46698 h 15.12815 c 7.34582,0 13.5158,4.9455 14.31328,11.48565 1.0594,8.63511 2.57861,20.92336 4.09782,32.55489 2.34577,17.96334 4.42956,25.54573 9.50529,29.89717 1.16416,0.99536 2.70664,1.54778 4.31316,1.54778 h 86.02506 c 3.91157,0 6.61821,-3.49161 5.24448,-6.76952 z M 284.23955,356.06672 c -7.08965,5.24256 -14.90111,7.00398 -22.07815,6.92581 -3.59724,-0.0419 -5.32015,-0.39606 -7.17115,-2.97043 -2.05476,-2.86102 -3.02679,-6.57666 -2.86962,-13.15331 0.27356,-11.13129 0.27356,-25.71769 0.91381,-27.26023 1.37373,-3.2779 4.07455,-4.45564 16.50769,-2.94437 9.60424,1.16732 20.44255,4.04917 23.84766,12.3299 2.71246,6.6079 0.17462,20.1833 -9.14442,27.07781 z"
     id="path3"
     style="fill:#caf240;stroke-width:0.550762" />
  <path
     class="cls-1"
     d="m 583.29859,378.58467 74.85502,-105.82554 c 2.36322,-3.34044 -0.32015,-7.69708 -4.73226,-7.69708 h -95.21019 c -1.90341,0 -3.6322,0.97973 -4.45288,2.51705 L 524.60786,322.579 496.41208,265.06205 H 396.1088 c -4.32486,0 -7.01986,4.20551 -4.83126,7.55115 l 69.30783,105.97147 -75.89109,105.60149 c -2.39818,3.33519 0.27938,7.72834 4.70899,7.72834 h 91.83995 c 2.36904,0 4.63913,-0.80777 6.38537,-2.2409 13.68461,-11.24071 23.13167,-31.86177 32.97463,-54.3589 l 28.44601,53.73355 c 0.9255,1.751 2.89876,2.86625 5.0641,2.86625 h 101.03675 c 4.44125,0 7.11881,-4.40879 4.69736,-7.74399 z"
     id="path4"
     style="fill:#caf240;stroke-width:0.550762"
     inkscape:export-filename="Logo Block Black.png"
     inkscape:export-xdpi="96"
     inkscape:export-ydpi="96" />
</svg>
