<?xml version="1.0" encoding="UTF-8" standalone="no"?>
<svg
   id="Layer_1"
   data-name="Layer 1"
   viewBox="0 0 770.00006 582.17455"
   version="1.1"
   sodipodi:docname="Logo Block White.svg"
   inkscape:export-filename="test 1.png"
   inkscape:export-xdpi="96"
   inkscape:export-ydpi="96"
   width="770"
   height="582.17456"
   inkscape:version="1.3.2 (091e20e, 2023-11-25, custom)"
   xmlns:inkscape="http://www.inkscape.org/namespaces/inkscape"
   xmlns:sodipodi="http://sodipodi.sourceforge.net/DTD/sodipodi-0.dtd"
   xmlns="http://www.w3.org/2000/svg"
   xmlns:svg="http://www.w3.org/2000/svg">
  <sodipodi:namedview
     id="namedview18"
     pagecolor="#ffffff"
     bordercolor="#000000"
     borderopacity="0.25"
     inkscape:showpageshadow="2"
     inkscape:pageopacity="0.0"
     inkscape:pagecheckerboard="0"
     inkscape:deskcolor="#d1d1d1"
     inkscape:zoom="0.73791035"
     inkscape:cx="346.92561"
     inkscape:cy="312.36857"
     inkscape:window-width="1920"
     inkscape:window-height="1051"
     inkscape:window-x="-9"
     inkscape:window-y="-9"
     inkscape:window-maximized="1"
     inkscape:current-layer="Layer_1"
     inkscape:export-bgcolor="#ffffff00" />
  <defs
     id="defs1">
    <style
       id="style1">
      .cls-1 {
        fill: #caf240;
      }
    </style>
  </defs>
  <path
     d="M 239.93336,169.78172 214.52607,49.727543 c -0.53099,-2.510509 -3.00071,-4.334339 -5.87177,-4.334339 H 74.035807 c -3.297078,0 -5.976731,2.378669 -5.976731,5.317672 V 280.53545 c 0,2.93351 2.673476,5.31766 5.976731,5.31766 h 80.266043 c 3.29708,0 5.97673,-2.37867 5.97673,-5.31766 V 148.62639 l 32.6621,133.04621 c 0.59891,2.4391 3.02541,4.18051 5.83472,4.18051 h 87.1257 L 318.24213,154.11986 V 285.85311 H 418.5994 L 414.8948,53.353238 c 0,-4.30139 -2.24129,-6.905278 -7.00169,-7.646902 -1.20396,-0.186779 -2.34622,-0.307635 -3.4082,-0.307635 h -133.2725 c -2.87104,0 -5.34077,1.818333 -5.87176,4.334342 L 239.93336,169.78721 Z"
     id="path1"
     style="fill:#f4f3ef;fill-opacity:1;stroke-width:0.582398"
     inkscape:export-filename="Logo Block White.png"
     inkscape:export-xdpi="96"
     inkscape:export-ydpi="96" />
  <path
     d="m 476.13731,285.85311 h 79.82776 c 3.07459,0 5.56505,-2.64788 5.56505,-5.91685 v -24.96953 c 0,-12.89065 -1.14273,-29.43166 -2.04461,-35.77895 -0.90699,-6.34726 -2.42895,-5.30118 -0.30752,-9.5236 0.4664,-0.9262 47.86186,-91.989 64.11644,-123.21862 2.42386,-4.658294 -0.74306,-10.373552 -5.75472,-10.373552 h -64.85944 c -2.89523,0 -5.47794,1.945038 -6.43622,4.848981 L 521.28321,156.62502 500.6216,80.403389 c -0.79428,-2.582476 -3.05929,-4.331381 -5.61633,-4.331381 l -74.78023,0.446754 c -4.366,0 -5.65733,5.203121 -4.06876,9.523627 3.63829,9.904996 7.91205,24.381111 12.90833,31.322241 7.65583,10.64597 15.45517,22.37613 21.3431,38.65563 5.88792,16.27953 23.56705,53.36606 25.72448,57.33242 v 72.50043"
     id="path2"
     style="fill:#f4f3ef;fill-opacity:1;stroke-width:0.528389"
     inkscape:export-filename="test 1.png"
     inkscape:export-xdpi="96"
     inkscape:export-ydpi="96" />
  <path
     class="cls-1"
     d="m 387.38821,497.42276 c -1.86457,-4.46096 -3.9392,-11.12748 -5.06288,-20.36446 -3.98246,-32.77994 1.7782,-84.35993 -43.83764,-93.78491 24.88251,-9.42491 42.34961,-31.49193 42.34961,-57.20181 0,-17.14726 -7.76108,-32.66936 -20.31347,-43.90187 -12.55237,-11.23255 -29.88985,-18.18653 -49.03639,-18.18653 H 139.24271 c -3.28474,0 -5.93971,2.38248 -5.93971,5.31776 v 229.99024 c 0,2.94082 2.66114,5.31775 5.93971,5.31775 h 95.15844 c 3.27857,0 5.93971,-2.38248 5.93971,-5.31775 v -74.74711 h 16.04702 c 7.792,0 14.33675,5.24587 15.18266,12.18327 1.12374,9.15962 2.73524,22.19423 4.34672,34.53227 2.48825,19.05441 4.69861,27.09734 10.08264,31.71309 1.23487,1.05583 2.87104,1.6418 4.57514,1.6418 h 91.25015 c 4.14917,0 7.02019,-3.7037 5.56302,-7.18071 z M 276.0469,360.51539 c -7.52028,5.56101 -15.80621,7.42942 -23.41917,7.34651 -3.81573,-0.0444 -5.64329,-0.42012 -7.60672,-3.15085 -2.17957,-3.03482 -3.21064,-6.97613 -3.04392,-13.95224 0.29017,-11.80739 0.29017,-27.27977 0.96931,-28.91599 1.45717,-3.47701 4.32204,-4.7263 17.51036,-3.12322 10.1876,1.23822 21.68422,4.2951 25.29616,13.0788 2.8772,7.00926 0.18522,21.40923 -9.69986,28.72252 z"
     id="path3"
     style="fill:#caf240;stroke-width:0.584216" />
  <path
     class="cls-1"
     d="m 593.27058,384.4011 79.40164,-112.25331 c 2.50677,-3.54335 -0.3396,-8.16461 -5.01968,-8.16461 h -100.9932 c -2.01903,0 -3.8528,1.03923 -4.72334,2.66994 l -30.92101,58.34055 -29.90836,-61.01049 H 394.71101 c -4.58754,0 -7.44626,4.46096 -5.12472,8.00981 l 73.51754,112.40811 -80.50065,112.01562 c -2.54385,3.53779 0.29635,8.19778 4.99501,8.19778 h 97.41823 c 2.51293,0 4.92091,-0.85686 6.77322,-2.37702 14.51579,-11.92346 24.53667,-33.79702 34.97749,-57.66063 l 30.17378,56.99729 c 0.98172,1.85738 3.07486,3.04036 5.37172,3.04036 h 107.17362 c 4.71103,0 7.55123,-4.67659 4.98269,-8.21436 z"
     id="path4"
     style="fill:#caf240;stroke-width:0.584216"
     inkscape:export-filename="test 1.png"
     inkscape:export-xdpi="96"
     inkscape:export-ydpi="96" />
</svg>
