<?xml version="1.0" encoding="UTF-8" standalone="no"?>
<svg
   id="Layer_1"
   data-name="Layer 1"
   viewBox="0 0 1499.9999 1499.9999"
   version="1.1"
   sodipodi:docname="Logo 4.svg"
   inkscape:export-filename="..\..\..\Logo 3.png"
   inkscape:export-xdpi="96"
   inkscape:export-ydpi="96"
   width="1499.9999"
   height="1499.9999"
   inkscape:version="1.3.2 (091e20e, 2023-11-25, custom)"
   xmlns:inkscape="http://www.inkscape.org/namespaces/inkscape"
   xmlns:sodipodi="http://sodipodi.sourceforge.net/DTD/sodipodi-0.dtd"
   xmlns="http://www.w3.org/2000/svg"
   xmlns:svg="http://www.w3.org/2000/svg">
  <sodipodi:namedview
     id="namedview18"
     pagecolor="#ffffff"
     bordercolor="#000000"
     borderopacity="0.25"
     inkscape:showpageshadow="2"
     inkscape:pageopacity="0.0"
     inkscape:pagecheckerboard="0"
     inkscape:deskcolor="#d1d1d1"
     inkscape:zoom="0.52178141"
     inkscape:cx="848.05628"
     inkscape:cy="543.33097"
     inkscape:window-width="1920"
     inkscape:window-height="1051"
     inkscape:window-x="-9"
     inkscape:window-y="-9"
     inkscape:window-maximized="1"
     inkscape:current-layer="Layer_1" />
  <defs
     id="defs1">
    <style
       id="style1">
      .cls-1 {
        fill: #caf240;
      }
    </style>
  </defs>
  <rect
     style="opacity:1;fill:#0d0f11;fill-opacity:1;stroke:#000000;stroke-width:0.399145"
     id="rect2"
     width="1499.6008"
     height="1499.6008"
     x="0.19957273"
     y="0.19957088"
     inkscape:export-filename="..\Final final\Logo 3.png"
     inkscape:export-xdpi="96"
     inkscape:export-ydpi="96" />
  <g
     id="g2"
     transform="translate(107.96868,251.70703)">
    <path
       id="path1"
       style="fill:#ffffff;stroke-width:0.943912"
       d="m 389.31001,118.48828 c -32.03524,2.46846 -63.82388,5.02554 -88.16601,10.26368 -25.23436,5.43012 -42.48279,13.73482 -59.41211,30.66406 -16.92932,16.92923 -33.53985,42.4816 -45.03906,82.72851 -11.49922,40.24692 -17.88641,95.18597 -22.67774,140.86329 -3.87153,36.90858 -6.63512,67.39071 -9.26367,97.08984 v 19.49414 c 0,4.75442 4.33381,8.61914 9.6875,8.61914 h 130.08984 c 5.3437,0 9.68555,-3.85581 9.68555,-8.61914 V 285.80274 l 52.9375,215.63281 c 0.97067,3.95313 4.9039,6.77539 9.45703,6.77539 h 141.20703 l 52.41602,-213.50586 v 213.50586 h 67.6875 c 5.72326,-0.40369 11.12656,-0.8209 15.86133,-1.26758 16.92941,-1.5971 26.51232,-3.51283 35.13672,-6.70703 8.62439,-3.1942 16.29035,-7.66668 22.35937,-16.29101 6.06902,-8.62434 10.53998,-21.4019 14.37305,-49.19141 1.88425,-13.6607 3.61425,-30.97258 5.26562,-50.10547 l -4.03515,-253.25781 c 0,-6.9714 -3.63235,-11.19256 -11.34766,-12.39453 -1.95136,-0.30272 -3.80225,-0.49805 -5.52344,-0.49805 h -216 c -4.65319,0 -8.65503,2.94566 -9.51562,7.02344 l -41.17969,194.57812 v -0.01 L 402.13619,125.51367 c -0.86059,-4.06886 -4.86438,-7.02539 -9.51758,-7.02539 z"
       inkscape:export-filename="..\Final final\Logo 22.png"
       inkscape:export-xdpi="96"
       inkscape:export-ydpi="96" />
    <path
       id="path38"
       style="stroke-width:0.946859"
       class="cls-1"
       d="m 289.70377,488.09763 c -5.32368,0 -9.62695,3.86185 -9.62695,8.61914 v 260.58984 c 8.32743,24.51177 17.38918,48.45593 31.60742,68.41602 14.53086,20.39897 34.43968,36.64249 55.02148,52.36523 h 77.2246 c 5.3137,0 9.627,-3.8599 9.627,-8.61718 V 748.32419 h 26.0078 c 12.6288,0 23.2364,8.50242 24.6074,19.7461 1.8213,14.84524 4.4331,35.97201 7.0449,55.96875 4.0328,30.88207 7.6157,43.91758 16.3418,51.39843 2.0014,1.7112 4.6522,2.66016 7.4141,2.66016 h 147.8926 c 6.7247,0 11.3792,-6.00339 9.0175,-11.63867 v -0.0176 c -3.022,-7.23 -6.3858,-18.03517 -8.207,-33.00586 -6.4545,-53.12757 2.8823,-136.7247 -71.0488,-152 40.3278,-15.27528 68.6367,-51.04016 68.6367,-92.70898 0,-27.79119 -12.5778,-52.94937 -32.9219,-71.1543 -20.3441,-18.20492 -48.4431,-29.47461 -79.4746,-29.47461 z m 183.33595,87.61524 c 3.478,0.0875 7.7774,0.44812 13.1211,1.09765 16.5114,2.00684 35.144,6.96123 40.998,21.19727 4.6632,11.36013 0.3004,34.69982 -15.7207,46.55273 l -0.01,-0.01 c -12.1884,9.01289 -25.6185,12.04062 -37.9571,11.90626 -6.1843,-0.0716 -9.1459,-0.67968 -12.3281,-5.10547 -3.5325,-4.91856 -5.2038,-11.30688 -4.9336,-22.61329 0.4703,-19.13666 0.4696,-44.21333 1.5703,-46.86523 1.7713,-4.22646 4.8257,-6.42263 15.2598,-6.16015 z" />
    <path
       id="path2-4"
       style="fill:#ffffff;stroke-width:0.856376"
       d="m 1007.3276,168.21094 h -55.8418 c -4.6924,0 -8.87855,3.15285 -10.43165,7.85937 L 900.59908,298.76563 867.11275,175.23047 c -1.2873,-4.18552 -4.95922,-7.01953 -9.10352,-7.01953 l -121.19922,0.72461 c -7.07609,0 -9.16837,8.43316 -6.59375,15.43555 5.89675,16.05335 12.82424,39.51394 20.92188,50.76367 12.40808,17.25427 25.04707,36.26565 34.58984,62.65039 9.54276,26.38473 38.19678,86.49347 41.69336,92.92187 v 117.50391 h 0.008 129.38086 c 4.9831,0 9.01954,-4.29171 9.01953,-9.58984 v -40.46875 c 0,-20.89233 -1.85275,-47.70106 -3.31445,-57.98829 -1.47,-10.28719 -3.93633,-8.59212 -0.49805,-15.43554 0.65201,-1.29481 57.00397,-109.56498 89.63287,-172.25586 l -17.75,-32.36719 c -2.8504,-2.25979 -6.2322,-4.29191 -10.7874,-6.31641 -4.3731,-1.94361 -9.8181,-3.8844 -15.7851,-5.57812 z"
       inkscape:export-filename="..\Final final\Logo 11.png"
       inkscape:export-xdpi="96"
       inkscape:export-ydpi="96" />
    <path
       id="path44"
       style="stroke-width:0.946859"
       class="cls-1"
       d="m 703.75062,488.09763 c -7.4352,0 -12.0673,7.23072 -8.3047,12.98242 l 119.1524,182.1836 -130.4707,181.54687 c -4.1229,5.73376 0.4804,13.28711 8.0957,13.28711 h 157.8887 c 4.0719,0 7.9764,-1.38781 10.9785,-3.85156 23.5254,-19.32468 39.7676,-54.77692 56.6894,-93.45313 l 48.9024,92.37696 c 1.5911,3.01017 4.9844,4.92773 8.707,4.92773 h 10.0059 c 18.39408,-8.69974 36.73678,-18.06755 54.56248,-34.16797 18.5926,-16.79358 36.6237,-40.91324 54.6191,-65.47461 l -69.0137,-95.1914 73.6114,-104.06641 20.1367,-28.4707 c -5.9607,-13.14941 -12.627,-26.03816 -23.4551,-37.39453 -8.6165,-9.03692 -19.8922,-17.09444 -32.0352,-24.83203 -13.9279,0.37018 -27.2895,1.08005 -39.5136,2.47265 -20.5586,2.34209 -37.91228,6.60523 -54.70118,11.20899 l -44.9414,84.79882 -48.4746,-98.88281 z" />
  </g>
</svg>
