<?xml version="1.0" encoding="UTF-8" standalone="no"?>
<svg
   id="Layer_1"
   data-name="Layer 1"
   viewBox="0 0 1400.0002 1400"
   version="1.1"
   sodipodi:docname="Logo 4.svg"
   inkscape:export-filename="..\..\..\Logo 3.png"
   inkscape:export-xdpi="96"
   inkscape:export-ydpi="96"
   width="1400.0001"
   height="1400"
   inkscape:version="1.3.2 (091e20e, 2023-11-25, custom)"
   xmlns:inkscape="http://www.inkscape.org/namespaces/inkscape"
   xmlns:sodipodi="http://sodipodi.sourceforge.net/DTD/sodipodi-0.dtd"
   xmlns="http://www.w3.org/2000/svg"
   xmlns:svg="http://www.w3.org/2000/svg">
  <sodipodi:namedview
     id="namedview18"
     pagecolor="#ffffff"
     bordercolor="#000000"
     borderopacity="0.25"
     inkscape:showpageshadow="2"
     inkscape:pageopacity="0.0"
     inkscape:pagecheckerboard="0"
     inkscape:deskcolor="#d1d1d1"
     inkscape:zoom="0.52178141"
     inkscape:cx="848.05628"
     inkscape:cy="543.33097"
     inkscape:window-width="1920"
     inkscape:window-height="1051"
     inkscape:window-x="-9"
     inkscape:window-y="-9"
     inkscape:window-maximized="1"
     inkscape:current-layer="Layer_1" />
  <defs
     id="defs1">
    <style
       id="style1">
      .cls-1 {
        fill: #caf240;
      }
    </style>
  </defs>
  <rect
     style="opacity:1;fill:#0d0f11;fill-opacity:1;stroke:#000000;stroke-width:0.408967"
     id="rect49"
     width="1399.5911"
     height="1399.5911"
     x="0.20447613"
     y="0.20448433" />
  <g
     id="g49"
     transform="translate(228.46964,318.95975)">
    <path
       id="path24"
       style="fill:#ffffff;stroke-width:0.943912"
       d="M 224.55859,0.27734375 C 192.52331,2.7458038 160.73474,5.3028731 136.39258,10.541016 111.1582,15.971151 93.909808,24.275828 76.980469,41.205078 60.051129,58.134328 43.440629,83.68664 31.941406,123.93359 20.442183,164.18055 14.05501,219.11952 9.2636719,264.79688 5.3921323,301.7055 2.628552,332.18756 0,361.88672 v 19.49414 C 0,386.13529 4.3338008,390 9.6875,390 h 130.08984 c 5.3437,0 9.68555,-3.8558 9.68555,-8.61914 V 167.5918 l 52.9375,215.63281 C 203.37106,387.17774 207.30428,390 211.85742,390 H 353.06445 L 405.48047,176.49414 V 390 h 162.65234 l -6.0039,-376.820312 c 0,-6.9714067 -3.63234,-11.1925541 -11.34766,-12.39453175 -1.95136,-0.3027194 -3.80225,-0.49804687 -5.52344,-0.49804687 h -216 c -4.6532,0 -8.65503,2.94565572 -9.51562,7.02343752 L 278.5625,201.88867 v -0.01 L 237.38477,7.3027344 c -0.86059,-4.068872 -4.86437,-7.02539065 -9.51758,-7.02539065 z"
       inkscape:export-filename="Logo 5.png"
       inkscape:export-xdpi="96"
       inkscape:export-ydpi="96" />
    <path
       id="path38"
       style="stroke-width:0.946859"
       class="cls-1"
       d="m 113.45329,371.8032 c -5.32368,0 -9.62695,3.86185 -9.62695,8.61914 v 260.58984 c 8.32743,24.51177 17.38918,48.45593 31.60742,68.41602 14.53086,20.39897 34.43968,36.64249 55.02148,52.36523 h 77.2246 c 5.3137,0 9.627,-3.8599 9.627,-8.61718 V 632.02976 h 26.0078 c 12.6288,0 23.2364,8.50242 24.6074,19.7461 1.8213,14.84524 4.4331,35.97201 7.0449,55.96875 4.0328,30.88207 7.6157,43.91758 16.3418,51.39843 2.0014,1.7112 4.6522,2.66016 7.4141,2.66016 h 147.8926 c 6.7247,0 11.3792,-6.00339 9.0175,-11.63867 v -0.0176 c -3.022,-7.23 -6.3858,-18.03517 -8.207,-33.00586 -6.4545,-53.12757 2.8823,-136.7247 -71.0488,-152 40.3278,-15.27528 68.6367,-51.04016 68.6367,-92.70898 0,-27.79119 -12.5778,-52.94937 -32.9219,-71.1543 -20.3441,-18.20492 -48.4431,-29.47461 -79.4746,-29.47461 z m 183.33595,87.61524 c 3.478,0.0875 7.7774,0.44812 13.1211,1.09765 16.5114,2.00684 35.144,6.96123 40.998,21.19727 4.6632,11.36013 0.3004,34.69982 -15.7207,46.55273 l -0.01,-0.01 c -12.1884,9.01289 -25.6185,12.04062 -37.9571,11.90626 -6.1843,-0.0716 -9.1459,-0.67968 -12.3281,-5.10547 -3.5325,-4.91856 -5.2038,-11.30688 -4.9336,-22.61329 0.4703,-19.13666 0.4696,-44.21333 1.5703,-46.86523 1.7713,-4.22646 4.8257,-6.42263 15.2598,-6.16015 z" />
    <path
       id="path2-4"
       style="fill:#ffffff;stroke-width:0.856376"
       d="m 864.625,50 h -75.89062 c -4.6924,0 -8.87855,3.15285 -10.43165,7.859375 L 737.84766,180.55469 704.36133,57.019531 C 703.07403,52.834005 699.40211,50 695.25781,50 l -121.19922,0.724609 c -7.0761,0 -9.16838,8.433154 -6.59375,15.435547 5.89675,16.053374 12.82423,39.513934 20.92188,50.763674 12.40809,17.25429 25.04706,36.26562 34.58984,62.65039 9.54277,26.38476 38.19677,86.49346 41.69336,92.92187 V 390 h 0.008 129.38086 c 4.9831,0 9.01954,-4.2917 9.01953,-9.58984 v -40.46875 c 0,-20.89235 -1.85275,-47.70105 -3.31445,-57.98829 -1.47,-10.28721 -3.93634,-8.59211 -0.49805,-15.43554 0.65201,-1.29481 57.00394,-109.56492 89.63282,-172.255861 z" />
    <path
       id="path44"
       style="stroke-width:0.946859"
       class="cls-1"
       d="m 527.50014,371.8032 c -7.4352,0 -12.0673,7.23072 -8.3047,12.98243 l 119.1524,182.18359 -130.4707,181.54687 c -4.1229,5.73376 0.4804,13.28711 8.0957,13.28711 h 157.8887 c 4.0719,0 7.9764,-1.38781 10.9785,-3.85156 23.5254,-19.32468 39.7676,-54.77692 56.6894,-93.45313 l 48.9024,92.37696 c 1.5911,3.01017 4.9844,4.92773 8.707,4.92773 h 10.0059 c 18.3941,-8.69974 36.7368,-18.06755 54.5625,-34.16797 18.5926,-16.79358 36.6237,-40.91324 54.6191,-65.47461 l -69.0137,-95.1914 73.6114,-104.06641 20.1367,-28.4707 c -5.9607,-13.14941 -12.627,-26.03815 -23.4551,-37.39453 -8.6165,-9.03692 -19.8922,-17.09444 -32.0352,-24.83203 -13.9279,0.37018 -27.2895,1.08005 -39.5136,2.47265 -20.5586,2.34209 -37.9123,6.60523 -54.7012,11.20899 l -44.9414,84.79883 -48.4746,-98.88282 z" />
  </g>
</svg>
