<?xml version="1.0" encoding="UTF-8" standalone="no"?>
<svg
   id="Layer_1"
   data-name="Layer 1"
   viewBox="0 0 2608.94 1604.12"
   version="1.1"
   sodipodi:docname="Logo 3.svg"
   inkscape:version="1.3.2 (091e20e, 2023-11-25, custom)"
   xmlns:inkscape="http://www.inkscape.org/namespaces/inkscape"
   xmlns:sodipodi="http://sodipodi.sourceforge.net/DTD/sodipodi-0.dtd"
   xmlns="http://www.w3.org/2000/svg"
   xmlns:svg="http://www.w3.org/2000/svg">
  <sodipodi:namedview
     id="namedview18"
     pagecolor="#ffffff"
     bordercolor="#000000"
     borderopacity="0.25"
     inkscape:showpageshadow="2"
     inkscape:pageopacity="0.0"
     inkscape:pagecheckerboard="0"
     inkscape:deskcolor="#d1d1d1"
     inkscape:zoom="0.52178141"
     inkscape:cx="1304.186"
     inkscape:cy="802.06"
     inkscape:window-width="1920"
     inkscape:window-height="1051"
     inkscape:window-x="-9"
     inkscape:window-y="-9"
     inkscape:window-maximized="1"
     inkscape:current-layer="Layer_1" />
  <defs
     id="defs1">
    <style
       id="style1">
      .cls-1 {
        fill: #caf240;
      }
    </style>
  </defs>
  <path
     d="M 620.47,683.93444 579.32,460.61017 c -0.86,-4.67005 -4.86,-8.06273 -9.51,-8.06273 H 351.78 c -5.34,0 -9.68,4.4248 -9.68,9.89192 v 427.51873 c 0,5.4569 4.33,9.89191 9.68,9.89191 h 130 c 5.34,0 9.68,-4.42479 9.68,-9.89191 V 644.58138 l 52.9,247.49202 c 0.97,4.5372 4.9,7.7766 9.45,7.7766 H 694.92 L 747.3,654.8003 V 899.85 h 162.54 l -6,-432.49534 c 0,-8.00142 -3.63,-12.84518 -11.34,-14.22474 -1.95,-0.34744 -3.8,-0.57226 -5.52,-0.57226 H 671.13 c -4.65,0 -8.65,3.38246 -9.51,8.06273 l -41.15,223.32427 z"
     id="path1"
     style="stroke-width:1.01089" />
  <path
     d="M1041.54,883.76h155.78c6,0,10.86-4.86,10.86-10.86v-45.83c0-23.66-2.23-54.02-3.99-65.67-1.77-11.65-4.74-9.73-.6-17.48.91-1.7,93.4-168.84,125.12-226.16,4.73-8.55-1.45-19.04-11.23-19.04h-126.57c-5.65,0-10.69,3.57-12.56,8.9l-48.71,138.95-40.32-139.9c-1.55-4.74-5.97-7.95-10.96-7.95l-145.93.82c-8.52,0-11.04,9.55-7.94,17.48,7.1,18.18,15.44,44.75,25.19,57.49,14.94,19.54,30.16,41.07,41.65,70.95,11.49,29.88,45.99,97.95,50.2,105.23v133.07"
     id="path2" />
  <path
     class="cls-1"
     d="M1800.31,870.76c-3.02-8.07-6.38-20.13-8.2-36.84-6.45-59.3,2.88-152.61-71-169.66,40.3-17.05,68.59-56.97,68.59-103.48,0-31.02-12.57-59.1-32.9-79.42-20.33-20.32-48.41-32.9-79.42-32.9h-278.97c-5.32,0-9.62,4.31-9.62,9.62v416.06c0,5.32,4.31,9.62,9.62,9.62h154.12c5.31,0,9.62-4.31,9.62-9.62v-135.22h25.99c12.62,0,23.22,9.49,24.59,22.04,1.82,16.57,4.43,40.15,7.04,62.47,4.03,34.47,7.61,49.02,16.33,57.37,2,1.91,4.65,2.97,7.41,2.97h147.79c6.72,0,11.37-6.7,9.01-12.99ZM1619.98,623.09c-12.18,10.06-25.6,13.44-37.93,13.29-6.18-.08-9.14-.76-12.32-5.7-3.53-5.49-5.2-12.62-4.93-25.24.47-21.36.47-49.35,1.57-52.31,2.36-6.29,7-8.55,28.36-5.65,16.5,2.24,35.12,7.77,40.97,23.66,4.66,12.68.3,38.73-15.71,51.96Z"
     id="path3" />
  <path
     class="cls-1"
     d="M2133.76,666.29l128.6-203.07c4.06-6.41-.55-14.77-8.13-14.77h-163.57c-3.27,0-6.24,1.88-7.65,4.83l-50.08,105.54-48.44-110.37h-172.32c-7.43,0-12.06,8.07-8.3,14.49l119.07,203.35-130.38,202.64c-4.12,6.4.48,14.83,8.09,14.83h157.78c4.07,0,7.97-1.55,10.97-4.3,23.51-21.57,39.74-61.14,56.65-104.31l48.87,103.11c1.59,3.36,4.98,5.5,8.7,5.5h173.58c7.63,0,12.23-8.46,8.07-14.86l-131.51-202.61h0Z"
     id="path4" />
  <g
     id="g18">
    <path
       d="M1452.68,1025.03c-13.64,0-26.43,5.1-36.43,14.33v-7.3c0-4.83-3.86-8.74-8.63-8.74s-8.63,3.91-8.63,8.74v40.44c-.39,2.91-.61,5.86-.54,8.86l.54,22.29v43.28c0,4.83,3.86,8.74,8.63,8.74s8.63-3.91,8.63-8.74v-73.48c1.27-7.35,4.69-14.14,9.96-19.62,7.02-7.29,16.42-11.31,26.47-11.31,20.09,0,36.68,16.56,36.98,36.92l1.01,67.62c.07,4.78,3.92,8.61,8.62,8.61h.14c4.76-.08,8.57-4.05,8.49-8.88l-1.01-67.62c-.45-29.85-24.78-54.14-54.23-54.14h0Z"
       id="path5" />
    <path
       d="M1183.52,1025.72c-15.52,0-29.24,7.81-37.63,19.72-8.4-11.91-22.12-19.72-37.64-19.72-10.98,0-21.06,3.91-29.01,10.42v-4.07c0-4.83-3.86-8.74-8.63-8.74s-8.63,3.91-8.63,8.74v114.86c0,4.83,3.86,8.74,8.63,8.74s8.63-3.91,8.63-8.74v-74.32c0-16.22,13.01-29.4,29.01-29.4s29.01,13.19,29.01,29.4v74.32c0,4.83,3.86,8.74,8.63,8.74s8.63-3.91,8.63-8.74v-74.32c0-16.22,13.01-29.4,29.01-29.4s29.01,13.19,29.01,29.4v74.32c0,4.83,3.86,8.74,8.63,8.74s8.63-3.91,8.63-8.74v-74.32c0-25.86-20.75-46.89-46.26-46.89h0Z"
       id="path6" />
    <path
       d="M1036.63,1029.3c-20.58-8.64-42.2-3.8-58.1,11.22v-8.45c0-4.83-3.86-8.74-8.63-8.74s-8.63,3.91-8.63,8.74v114.86c0,4.83,3.86,8.74,8.63,8.74s8.63-3.91,8.63-8.74v-76.89c10.52-22.87,31.48-33,51.5-24.59,4.4,1.84,9.45-.27,11.27-4.73,1.82-4.46-.26-9.58-4.67-11.42h0Z"
       id="path7" />
    <path
       d="M785.37,974.72h-2.71c-26.58,0-48.2,21.92-48.2,48.86v1.39h-9.64c-4.76,0-8.63,3.91-8.63,8.74s3.86,8.74,8.63,8.74h9.64v104.47c0,4.83,3.86,8.74,8.63,8.74s8.63-3.91,8.63-8.74v-104.47h20.81c4.76,0,8.63-3.91,8.63-8.74s-3.86-8.74-8.63-8.74h-20.81v-1.39c0-17.3,13.88-31.37,30.95-31.37h2.71c4.76,0,8.63-3.91,8.63-8.74s-3.86-8.74-8.63-8.74h0Z"
       id="path8" />
    <path
       d="M700.21,1029.3c-20.58-8.64-42.2-3.8-58.1,11.22v-8.45c0-4.83-3.86-8.74-8.63-8.74s-8.63,3.91-8.63,8.74v114.86c0,4.83,3.86,8.74,8.63,8.74s8.63-3.91,8.63-8.74v-76.89c10.52-22.87,31.48-33,51.5-24.59,4.4,1.84,9.45-.27,11.27-4.73,1.82-4.46-.26-9.58-4.67-11.42h0Z"
       id="path9" />
    <path
       d="M876.71,1136.98c-25.83,0-46.85-21.3-46.85-47.49s21.02-47.48,46.85-47.48,46.85,21.3,46.85,47.48-21.02,47.49-46.85,47.49h0ZM876.71,1024.52c-35.35,0-64.1,29.15-64.1,64.97s28.76,64.97,64.1,64.97,64.1-29.15,64.1-64.97-28.76-64.97-64.1-64.97h0Z"
       id="path10" />
    <path
       d="M1314.11,1136.98c-25.83,0-46.85-21.3-46.85-47.49s21.02-47.48,46.85-47.48,46.85,21.3,46.85,47.48-21.02,47.49-46.85,47.49h0ZM1314.11,1024.52c-35.35,0-64.1,29.15-64.1,64.97s28.76,64.97,64.1,64.97c18.48,0,35.14-7.97,46.85-20.69v13.15c0,4.83,3.86,8.74,8.63,8.74s8.63-3.91,8.63-8.74v-57.43c0-35.82-28.76-64.97-64.1-64.97h0Z"
       id="path11" />
    <path
       d="M1620.46,1128.4c-7.9,5.62-17.19,8.58-26.88,8.58-25.83,0-46.85-21.3-46.85-47.49s21.02-47.48,46.85-47.48c7.8,0,15.52,1.98,22.33,5.72,4.19,2.31,9.43.73,11.7-3.51,2.27-4.24.72-9.55-3.46-11.86-9.32-5.13-19.89-7.84-30.56-7.84-35.35,0-64.1,29.15-64.1,64.97s28.76,64.97,64.1,64.97c13.25,0,25.96-4.06,36.78-11.75,3.9-2.77,4.85-8.22,2.11-12.18-2.74-3.95-8.11-4.91-12.02-2.14h0Z"
       id="path12" />
    <path
       d="M2053.56,1136.98c-25.84,0-46.85-21.3-46.85-47.49s21.02-47.48,46.85-47.48,46.85,21.3,46.85,47.48-21.02,47.49-46.85,47.49h0ZM2053.56,1024.52c-35.35,0-64.11,29.15-64.11,64.97s28.76,64.97,64.11,64.97c18.48,0,35.14-7.97,46.85-20.69v13.15c0,4.83,3.86,8.74,8.63,8.74s8.63-3.91,8.63-8.74v-57.43c0-35.82-28.76-64.97-64.1-64.97h0Z"
       id="path13" />
    <path
       d="M2202.74,1138.18c-25.83,0-46.85-21.3-46.85-47.49s21.02-47.49,46.85-47.49,46.85,21.3,46.85,47.49-21.02,47.49-46.85,47.49h0ZM2202.74,1025.72c-18.48,0-35.14,7.97-46.85,20.69v-66.04c0-4.83-3.86-8.74-8.63-8.74s-8.63,3.91-8.63,8.74v110.32c0,35.83,28.76,64.97,64.1,64.97s64.1-29.15,64.1-64.97-28.76-64.98-64.1-64.98h0Z"
       id="path14" />
    <path
       d="M1961.38,1136.98h-89.22v-156.6c0-4.83-3.86-8.74-8.63-8.74s-8.63,3.91-8.63,8.74v165.35c0,4.83,3.86,8.74,8.63,8.74h97.84c4.76,0,8.63-3.91,8.63-8.74s-3.86-8.74-8.63-8.74h0Z"
       id="path15" />
    <path
       d="M404.24,1062.02h-44.88v-69.82h44.88c18.99,0,34.44,15.66,34.44,34.91s-15.45,34.91-34.44,34.91h0ZM404.24,974.72h-53.51c-4.76,0-8.63,3.91-8.63,8.74v163.46c0,4.83,3.86,8.74,8.63,8.74s8.63-3.91,8.63-8.74v-67.42h44.88c28.5,0,51.69-23.5,51.69-52.39s-23.19-52.39-51.69-52.39h0Z"
       id="path16" />
    <path
       d="M1674.23,1080.75c4.06-22.02,23.17-38.74,46.06-38.74s41.99,16.72,46.05,38.74h-92.11ZM1720.29,1024.52c-35.35,0-64.11,29.15-64.11,64.97s28.76,64.97,64.11,64.97c12.38,0,24.39-3.58,34.75-10.37,4-2.62,5.15-8.03,2.56-12.09-2.59-4.06-7.93-5.22-11.92-2.6-7.56,4.95-16.35,7.57-25.39,7.57-22.89,0-42-16.72-46.06-38.74h101.54c4.76,0,8.63-3.91,8.63-8.74,0-35.82-28.76-64.97-64.1-64.97h0Z"
       id="path17" />
    <path
       d="M494.36,1080.73c4.06-22.02,23.17-38.74,46.05-38.74s42,16.72,46.06,38.74h-92.11ZM540.41,1024.5c-35.35,0-64.1,29.15-64.1,64.97s28.76,64.98,64.1,64.98c12.38,0,24.4-3.59,34.75-10.37,4-2.62,5.15-8.03,2.56-12.09-2.58-4.06-7.93-5.22-11.93-2.6-7.56,4.95-16.34,7.57-25.39,7.57-22.89,0-42-16.72-46.05-38.75h101.53c4.76,0,8.63-3.91,8.63-8.74,0-35.83-28.76-64.97-64.1-64.97h0Z"
       id="path18" />
  </g>
</svg>
