<?xml version="1.0" encoding="UTF-8"?>
<svg id="Layer_1" data-name="Layer 1" xmlns="http://www.w3.org/2000/svg" viewBox="0 0 1524.71 1614">
  <defs>
    <style>
      .cls-1 {
        fill: #caf240;
      }

      .cls-2 {
        fill: #fff;
      }
    </style>
  </defs>
  <path class="cls-2" d="M490.85,618.74l-40.64-215.83c-.85-4.52-4.8-7.79-9.39-7.79h-215.33c-5.28,0-9.56,4.28-9.56,9.56v413.18c0,5.28,4.28,9.56,9.56,9.56h128.39c5.28,0,9.56-4.28,9.56-9.56v-237.15l52.25,239.19c.96,4.39,4.84,7.52,9.34,7.52h139.36l51.73-236.83v236.83h160.53l-5.93-417.99c0-7.74-3.58-12.42-11.2-13.75-1.92-.34-3.75-.55-5.45-.55h-213.17c-4.6,0-8.54,3.27-9.39,7.79l-40.64,215.83Z"/>
  <path class="cls-2" d="M906.7,811.52h153.86c5.92,0,10.72-4.8,10.72-10.72v-45.26c0-23.36-2.2-53.35-3.94-64.86-1.74-11.51-4.68-9.61-.6-17.26.9-1.68,92.24-166.75,123.57-223.36,4.67-8.44-1.44-18.8-11.09-18.8h-125c-5.58,0-10.55,3.53-12.4,8.79l-48.11,137.23-39.82-138.17c-1.53-4.68-5.89-7.85-10.82-7.85l-144.12.81c-8.41,0-10.91,9.43-7.85,17.26,7.02,17.96,15.25,44.19,24.87,56.78,14.76,19.3,29.79,40.56,41.14,70.07,11.35,29.51,45.42,96.74,49.58,103.93v131.42"/>
  <path class="cls-1" d="M848.02,1206.05c-2.98-7.97-6.3-19.88-8.1-36.39-6.37-58.57,2.84-150.72-70.12-167.56,39.81-16.84,67.74-56.26,67.74-102.2,0-30.63-12.41-58.36-32.49-78.44-20.08-20.07-47.81-32.49-78.44-32.49h-275.52c-5.25,0-9.5,4.25-9.5,9.5v410.91c0,5.25,4.25,9.5,9.5,9.5h152.21c5.25,0,9.5-4.25,9.5-9.5v-133.55h25.67c12.47,0,22.94,9.38,24.29,21.77,1.79,16.36,4.38,39.65,6.95,61.7,3.98,34.04,7.51,48.42,16.13,56.66,1.97,1.88,4.59,2.93,7.32,2.93h145.96c6.63,0,11.23-6.62,8.9-12.83ZM669.93,961.44c-12.03,9.94-25.28,13.27-37.46,13.13-6.1-.07-9.03-.75-12.17-5.63-3.48-5.42-5.14-12.46-4.87-24.93.46-21.09.46-48.74,1.55-51.66,2.33-6.21,6.91-8.44,28-5.58,16.29,2.21,34.69,7.67,40.46,23.37,4.6,12.52.3,38.25-15.52,51.32Z"/>
  <path class="cls-1" d="M1177.35,1004.11l127.01-200.55c4.01-6.33-.54-14.59-8.03-14.59h-161.54c-3.23,0-6.17,1.86-7.55,4.77l-49.46,104.23-47.84-109.01h-170.19c-7.34,0-11.91,7.97-8.2,14.31l117.59,200.83-128.77,200.13c-4.07,6.32.47,14.65,7.99,14.65h155.83c4.02,0,7.88-1.53,10.84-4.25,23.22-21.3,39.25-60.39,55.95-103.02l48.26,101.83c1.57,3.32,4.92,5.43,8.59,5.43h171.43c7.54,0,12.08-8.36,7.97-14.68l-129.88-200.1h0Z"/>
</svg>