<?xml version="1.0" encoding="UTF-8"?>
<svg id="Layer_1" data-name="Layer 1" xmlns="http://www.w3.org/2000/svg" viewBox="0 0 2608.94 1604.12">
  <defs>
    <style>
      .cls-1 {
        fill: #caf240;
      }

      .cls-2 {
        fill: #fff;
      }
    </style>
  </defs>
  <g>
    <path class="cls-2" d="M642.09,680.35l-39.88-211.81c-.83-4.43-4.71-7.64-9.22-7.64h-211.32c-5.18,0-9.38,4.2-9.38,9.38v405.49c0,5.18,4.2,9.38,9.38,9.38h126c5.18,0,9.38-4.2,9.38-9.38v-232.73l51.28,234.73c.94,4.31,4.75,7.38,9.16,7.38h136.76l50.77-232.42v232.42h144.76v-414.86c0-5.18-4.2-9.38-9.38-9.38h-209.2c-4.51,0-8.38,3.21-9.22,7.64l-39.88,211.81Z"/>
    <path class="cls-2" d="M1172.28,492.93l-47.89,130.51-47.89-130.51c-1.35-3.69-4.87-6.15-8.8-6.15h-133.19c-6.87,0-11.41,7.14-8.49,13.36l123.95,264.19v120.8h139.45c5.18,0,9.38-4.2,9.38-9.38v-111.42l123.95-264.19c2.92-6.22-1.62-13.36-8.49-13.36h-133.19c-3.93,0-7.45,2.45-8.8,6.15Z"/>
  </g>
  <g>
    <path class="cls-1" d="M1635.37,601.46c0,23.43-18.99,42.42-42.42,42.42h-31.71v-84.84h31.71c23.43,0,42.42,18.99,42.42,42.42h0ZM1785.36,836.57c-6.29-57.79,2.8-148.73-69.2-165.35,39.28-16.62,66.84-55.52,66.84-100.85h0c0-60.46-49.01-109.47-109.47-109.47h-271.88c-5.18,0-9.38,4.2-9.38,9.38v405.48c0,5.18,4.2,9.38,9.38,9.38h150.21c5.18,0,9.38-4.2,9.38-9.38v-131.78h25.33c12.3,0,22.63,9.25,23.97,21.48,1.77,16.14,4.32,39.13,6.86,60.89,4.44,37.95,8.31,51.13,19.49,58.8h147.67c6.52,0,11.09-6.51,8.8-12.62-2.95-7.86-6.23-19.64-8.01-35.95h0Z"/>
    <path class="cls-1" d="M2118.33,673.2l125.33-197.9c3.95-6.24-.53-14.4-7.92-14.4h-156.29c-5.09,0-9.73,2.93-11.91,7.53l-47.47,100.04-43.75-99.68c-2.1-4.79-6.84-7.88-12.07-7.88h-159.33c-7.24,0-11.75,7.86-8.09,14.12l116.04,198.18-127.07,197.49c-4.02,6.24.47,14.45,7.89,14.45h163.88c3.63,0,6.94-2.1,8.48-5.38l47.31-100.47,47.63,100.49c1.55,3.27,4.85,5.36,8.47,5.36h169.17c7.44,0,11.92-8.24,7.87-14.48l-128.16-197.46h0Z"/>
  </g>
  <g>
    <path class="cls-2" d="M1449.78,1012.59c-13.37,0-25.91,5.1-35.72,14.33v-7.3c0-4.83-3.78-8.74-8.46-8.74s-8.46,3.91-8.46,8.74v40.44c-.38,2.91-.6,5.86-.53,8.86l.53,22.29v43.28c0,4.83,3.79,8.74,8.46,8.74s8.46-3.91,8.46-8.74v-73.48c1.25-7.35,4.6-14.14,9.76-19.62,6.88-7.29,16.1-11.31,25.95-11.31,19.7,0,35.96,16.56,36.26,36.92l.99,67.62c.07,4.78,3.85,8.61,8.45,8.61h.13c4.67-.08,8.4-4.05,8.33-8.88l-.99-67.62c-.44-29.85-24.29-54.14-53.17-54.14h0Z"/>
    <path class="cls-2" d="M1185.88,1013.27c-15.21,0-28.66,7.81-36.9,19.72-8.23-11.91-21.69-19.72-36.9-19.72-10.76,0-20.65,3.91-28.44,10.42v-4.07c0-4.83-3.79-8.74-8.46-8.74s-8.46,3.91-8.46,8.74v114.86c0,4.83,3.79,8.74,8.46,8.74s8.46-3.91,8.46-8.74v-74.32c0-16.22,12.76-29.4,28.44-29.4s28.44,13.19,28.44,29.4v74.32c0,4.83,3.79,8.74,8.46,8.74s8.46-3.91,8.46-8.74v-74.32c0-16.22,12.76-29.4,28.44-29.4s28.44,13.19,28.44,29.4v74.32c0,4.83,3.79,8.74,8.46,8.74s8.46-3.91,8.46-8.74v-74.32c0-25.86-20.35-46.89-45.35-46.89h0Z"/>
    <path class="cls-2" d="M1041.86,1016.85c-20.17-8.64-41.37-3.8-56.97,11.22v-8.45c0-4.83-3.79-8.74-8.46-8.74s-8.46,3.91-8.46,8.74v114.86c0,4.83,3.79,8.74,8.46,8.74s8.46-3.91,8.46-8.74v-76.89c10.32-22.87,30.86-33,50.49-24.59,4.31,1.84,9.26-.27,11.05-4.73,1.79-4.46-.26-9.58-4.58-11.42h0Z"/>
    <path class="cls-2" d="M795.52,962.27h-2.65c-26.06,0-47.26,21.92-47.26,48.86v1.39h-9.45c-4.67,0-8.46,3.91-8.46,8.74s3.79,8.74,8.46,8.74h9.45v104.47c0,4.83,3.79,8.74,8.46,8.74s8.46-3.91,8.46-8.74v-104.47h20.4c4.67,0,8.46-3.91,8.46-8.74s-3.79-8.74-8.46-8.74h-20.4v-1.39c0-17.3,13.61-31.37,30.35-31.37h2.65c4.67,0,8.46-3.91,8.46-8.74s-3.79-8.74-8.46-8.74h0Z"/>
    <path class="cls-2" d="M712.03,1016.85c-20.17-8.64-41.37-3.8-56.97,11.22v-8.45c0-4.83-3.79-8.74-8.46-8.74s-8.46,3.91-8.46,8.74v114.86c0,4.83,3.79,8.74,8.46,8.74s8.46-3.91,8.46-8.74v-76.89c10.32-22.87,30.86-33,50.49-24.59,4.31,1.84,9.26-.27,11.05-4.73,1.79-4.46-.26-9.58-4.58-11.42h0Z"/>
    <path class="cls-2" d="M885.07,1124.53c-25.33,0-45.93-21.3-45.93-47.49s20.61-47.48,45.93-47.48,45.93,21.3,45.93,47.48-20.61,47.49-45.93,47.49h0ZM885.07,1012.08c-34.66,0-62.85,29.15-62.85,64.97s28.19,64.97,62.85,64.97,62.85-29.15,62.85-64.97-28.19-64.97-62.85-64.97h0Z"/>
    <path class="cls-2" d="M1313.92,1124.53c-25.33,0-45.93-21.3-45.93-47.49s20.6-47.48,45.93-47.48,45.93,21.3,45.93,47.48-20.61,47.49-45.93,47.49h0ZM1313.92,1012.08c-34.66,0-62.85,29.15-62.85,64.97s28.19,64.97,62.85,64.97c18.12,0,34.46-7.97,45.93-20.69v13.15c0,4.83,3.79,8.74,8.46,8.74s8.46-3.91,8.46-8.74v-57.43c0-35.82-28.19-64.97-62.85-64.97h0Z"/>
    <path class="cls-2" d="M1614.29,1115.95c-7.74,5.62-16.86,8.58-26.35,8.58-25.33,0-45.93-21.3-45.93-47.49s20.61-47.48,45.93-47.48c7.65,0,15.22,1.98,21.89,5.72,4.11,2.31,9.24.73,11.47-3.51,2.23-4.24.71-9.55-3.4-11.86-9.14-5.13-19.5-7.84-29.96-7.84-34.66,0-62.85,29.15-62.85,64.97s28.19,64.97,62.85,64.97c12.99,0,25.46-4.06,36.06-11.75,3.83-2.77,4.75-8.22,2.07-12.18-2.68-3.95-7.95-4.91-11.78-2.14h0Z"/>
    <path class="cls-2" d="M2038.91,1124.53c-25.33,0-45.94-21.3-45.94-47.49s20.6-47.48,45.94-47.48,45.93,21.3,45.93,47.48-20.61,47.49-45.93,47.49h0ZM2038.91,1012.08c-34.66,0-62.85,29.15-62.85,64.97s28.19,64.97,62.85,64.97c18.12,0,34.46-7.97,45.93-20.69v13.15c0,4.83,3.79,8.74,8.46,8.74s8.46-3.91,8.46-8.74v-57.43c0-35.82-28.19-64.97-62.85-64.97h0Z"/>
    <path class="cls-2" d="M2185.17,1125.74c-25.33,0-45.93-21.3-45.93-47.49s20.6-47.49,45.93-47.49,45.93,21.3,45.93,47.49-20.61,47.49-45.93,47.49h0ZM2185.17,1013.27c-18.12,0-34.46,7.97-45.93,20.69v-66.04c0-4.83-3.79-8.74-8.46-8.74s-8.46,3.91-8.46,8.74v110.32c0,35.83,28.19,64.97,62.85,64.97s62.85-29.15,62.85-64.97-28.19-64.98-62.85-64.98h0Z"/>
    <path class="cls-2" d="M1948.53,1124.53h-87.47v-156.6c0-4.83-3.79-8.74-8.46-8.74s-8.46,3.91-8.46,8.74v165.35c0,4.83,3.79,8.74,8.46,8.74h95.93c4.67,0,8.46-3.91,8.46-8.74s-3.79-8.74-8.46-8.74h0Z"/>
    <path class="cls-2" d="M421.84,1049.57h-44.01v-69.82h44.01c18.62,0,33.77,15.66,33.77,34.91s-15.15,34.91-33.77,34.91h0ZM421.84,962.27h-52.46c-4.67,0-8.46,3.91-8.46,8.74v163.46c0,4.83,3.79,8.74,8.46,8.74s8.46-3.91,8.46-8.74v-67.42h44.01c27.95,0,50.68-23.5,50.68-52.39s-22.73-52.39-50.68-52.39h0Z"/>
    <path class="cls-2" d="M1667,1068.3c3.98-22.02,22.72-38.74,45.16-38.74s41.17,16.72,45.15,38.74h-90.31ZM1712.16,1012.08c-34.66,0-62.85,29.15-62.85,64.97s28.19,64.97,62.85,64.97c12.13,0,23.92-3.58,34.07-10.37,3.92-2.62,5.05-8.03,2.51-12.09-2.54-4.06-7.78-5.22-11.69-2.6-7.42,4.95-16.03,7.57-24.9,7.57-22.44,0-41.18-16.72-45.16-38.74h99.55c4.67,0,8.46-3.91,8.46-8.74,0-35.82-28.19-64.97-62.85-64.97h0Z"/>
    <path class="cls-2" d="M510.2,1068.29c3.98-22.02,22.71-38.74,45.15-38.74s41.18,16.72,45.16,38.74h-90.31ZM555.35,1012.06c-34.66,0-62.85,29.15-62.85,64.97s28.19,64.98,62.85,64.98c12.14,0,23.92-3.59,34.07-10.37,3.92-2.62,5.05-8.03,2.51-12.09-2.53-4.06-7.77-5.22-11.69-2.6-7.41,4.95-16.02,7.57-24.9,7.57-22.44,0-41.18-16.72-45.15-38.75h99.55c4.67,0,8.46-3.91,8.46-8.74,0-35.83-28.19-64.97-62.85-64.97h0Z"/>
  </g>
</svg>