<?xml version="1.0" encoding="UTF-8"?>
<svg id="Layer_1" data-name="Layer 1" xmlns="http://www.w3.org/2000/svg" viewBox="0 0 1524.71 1614">
  <defs>
    <style>
      .cls-1 {
        fill: #caf240;
      }

      .cls-2 {
        fill: #fff;
      }
    </style>
  </defs>
  <path class="cls-2" d="M496.91,622l-39.88-211.81c-.83-4.43-4.71-7.64-9.22-7.64h-211.32c-5.18,0-9.38,4.2-9.38,9.38v405.49c0,5.18,4.2,9.38,9.38,9.38h126c5.18,0,9.38-4.2,9.38-9.38v-232.73l51.28,234.73c.94,4.31,4.75,7.38,9.16,7.38h136.76l50.77-232.42v232.42h144.76v-414.86c0-5.18-4.2-9.38-9.38-9.38h-209.2c-4.51,0-8.38,3.21-9.22,7.64l-39.88,211.81Z"/>
  <path class="cls-2" d="M1027.1,434.58l-47.89,130.51-47.89-130.51c-1.35-3.69-4.87-6.15-8.8-6.15h-133.19c-6.87,0-11.41,7.14-8.49,13.36l123.95,264.19v120.8h139.45c5.18,0,9.38-4.2,9.38-9.38v-111.42l123.95-264.19c2.92-6.22-1.62-13.36-8.49-13.36h-133.19c-3.93,0-7.45,2.45-8.8,6.15Z"/>
  <path class="cls-1" d="M684.94,927.77c0,23.43-18.99,42.42-42.42,42.42h-31.71v-84.84h31.71c23.43,0,42.42,18.99,42.42,42.42h0ZM834.93,1162.88c-6.29-57.79,2.8-148.73-69.2-165.35,39.28-16.62,66.84-55.52,66.84-100.85h0c0-60.46-49.01-109.47-109.47-109.47h-271.88c-5.18,0-9.38,4.2-9.38,9.38v405.48c0,5.18,4.2,9.38,9.38,9.38h150.21c5.18,0,9.38-4.2,9.38-9.38v-131.78h25.33c12.3,0,22.63,9.25,23.97,21.48,1.77,16.14,4.32,39.13,6.86,60.89,4.44,37.95,8.31,51.13,19.49,58.8h147.67c6.52,0,11.09-6.51,8.8-12.62-2.95-7.86-6.23-19.64-8.01-35.95h0Z"/>
  <path class="cls-1" d="M1167.9,999.51l125.33-197.9c3.95-6.24-.53-14.4-7.92-14.4h-156.29c-5.09,0-9.73,2.93-11.91,7.53l-47.47,100.04-43.75-99.68c-2.1-4.79-6.84-7.88-12.07-7.88h-159.33c-7.24,0-11.75,7.86-8.09,14.12l116.04,198.18-127.07,197.49c-4.02,6.24.47,14.45,7.89,14.45h163.88c3.63,0,6.94-2.1,8.48-5.38l47.31-100.47,47.63,100.49c1.55,3.27,4.85,5.36,8.47,5.36h169.17c7.44,0,11.92-8.24,7.87-14.48l-128.16-197.46h0Z"/>
</svg>