<?xml version="1.0" encoding="UTF-8"?>
<svg id="Layer_1" data-name="Layer 1" xmlns="http://www.w3.org/2000/svg" xmlns:xlink="http://www.w3.org/1999/xlink" viewBox="0 0 2608.94 1604.12">
  <defs>
    <style>
      .cls-1 {
        fill: #caf240;
      }

      .cls-2 {
        fill: none;
      }

      .cls-3 {
        clip-path: url(#clippath-1);
      }

      .cls-4 {
        clip-path: url(#clippath);
      }
    </style>
    <clipPath id="clippath">
      <ellipse class="cls-2" cx="804.48" cy="802.06" rx="510.19" ry="627.88"/>
    </clipPath>
    <clipPath id="clippath-1">
      <ellipse class="cls-2" cx="1847.48" cy="802.06" rx="467.17" ry="566.05"/>
    </clipPath>
  </defs>
  <g class="cls-4">
    <g>
      <polygon points="638.66 566.68 592.81 810.2 546.95 566.68 293.43 566.68 293.43 1037.44 454.05 1037.44 454.05 768.78 512.74 1037.44 672.87 1037.44 729.21 779.54 729.21 1037.44 889.83 1037.44 889.83 566.68 638.66 566.68 638.66 566.68"/>
      <polygon points="1355.06 595.41 1183.63 595.41 1127.99 747.05 1072.35 595.41 900.92 595.41 1045.42 903.39 1045.42 1037.44 1210.56 1037.44 1210.56 903.39 1355.06 595.41 1355.06 595.41"/>
    </g>
  </g>
  <g class="cls-3">
    <g>
      <path class="cls-1" d="M1650.06,722.66c0,26-21.07,47.07-47.07,47.07h-35.19v-94.14h35.19c26,0,47.07,21.07,47.07,47.07h0ZM1816.49,983.54c-6.98-64.13,3.11-165.04-76.78-183.48,43.59-18.44,74.17-61.6,74.17-111.91h0c0-67.08-54.38-121.47-121.47-121.47h-312.1v470.75h187.48v-156.63h28.11c13.65,0,25.11,10.26,26.6,23.83,1.96,17.91,4.79,43.42,7.61,67.56,4.92,42.11,9.22,56.73,21.63,65.24h180.44s-11.54-15.77-15.69-53.9h0Z"/>
      <polygon class="cls-1" points="2185.96 802.26 2335.15 566.69 2133.57 566.69 2076.93 686.05 2024.54 566.69 1820.04 566.69 1957.97 802.26 1806.65 1037.43 2014.17 1037.43 2069.48 919.98 2125.15 1037.43 2338.61 1037.43 2185.96 802.26 2185.96 802.26"/>
    </g>
  </g>
  <g>
    <path d="M1466.59,1164.85c-13.98,0-27.09,5.16-37.34,14.49v-7.38c0-4.88-3.96-8.84-8.84-8.84s-8.84,3.96-8.84,8.84v40.89c-.4,2.94-.63,5.93-.55,8.96l.55,22.54v43.77c0,4.88,3.96,8.84,8.84,8.84s8.84-3.96,8.84-8.84v-74.31c1.31-7.44,4.81-14.3,10.21-19.84,7.2-7.37,16.83-11.44,27.13-11.44,20.59,0,37.6,16.75,37.91,37.34l1.03,68.38c.08,4.84,4.02,8.71,8.84,8.71h.14c4.88-.08,8.78-4.09,8.71-8.98l-1.03-68.38c-.46-30.19-25.4-54.76-55.59-54.76h0Z"/>
    <path d="M1190.69,1165.55c-15.9,0-29.97,7.9-38.58,19.94-8.61-12.05-22.67-19.94-38.58-19.94-11.25,0-21.59,3.96-29.73,10.53v-4.12c0-4.88-3.96-8.84-8.84-8.84s-8.84,3.96-8.84,8.84v116.16c0,4.88,3.96,8.84,8.84,8.84s8.84-3.96,8.84-8.84v-75.16c0-16.4,13.34-29.74,29.73-29.74s29.74,13.34,29.74,29.74v75.16c0,4.88,3.96,8.84,8.84,8.84s8.84-3.96,8.84-8.84v-75.16c0-16.4,13.34-29.74,29.73-29.74s29.73,13.34,29.73,29.74v75.16c0,4.88,3.96,8.84,8.84,8.84s8.84-3.96,8.84-8.84v-75.16c0-26.15-21.27-47.42-47.42-47.42h0Z"/>
    <path d="M1040.12,1169.17c-21.09-8.74-43.25-3.84-59.56,11.34v-8.55c0-4.88-3.96-8.84-8.84-8.84s-8.84,3.96-8.84,8.84v116.16c0,4.88,3.96,8.84,8.84,8.84s8.84-3.96,8.84-8.84v-77.76c10.79-23.13,32.26-33.37,52.79-24.86,4.51,1.86,9.68-.27,11.55-4.78,1.87-4.51-.27-9.68-4.78-11.55h0Z"/>
    <path d="M782.56,1113.97h-2.77c-27.25,0-49.41,22.16-49.41,49.41v1.41h-9.88c-4.88,0-8.84,3.96-8.84,8.84s3.96,8.84,8.84,8.84h9.88v105.65c0,4.88,3.96,8.84,8.84,8.84s8.84-3.96,8.84-8.84v-105.65h21.33c4.88,0,8.84-3.96,8.84-8.84s-3.96-8.84-8.84-8.84h-21.33v-1.41c0-17.49,14.23-31.73,31.73-31.73h2.77c4.88,0,8.84-3.96,8.84-8.84s-3.96-8.84-8.84-8.84h0Z"/>
    <path d="M695.27,1169.17c-21.09-8.74-43.25-3.84-59.56,11.34v-8.55c0-4.88-3.96-8.84-8.84-8.84s-8.84,3.96-8.84,8.84v116.16c0,4.88,3.96,8.84,8.84,8.84s8.84-3.96,8.84-8.84v-77.76c10.79-23.13,32.27-33.37,52.79-24.86,4.51,1.86,9.69-.27,11.55-4.78,1.87-4.51-.27-9.68-4.78-11.55h0Z"/>
    <path d="M876.19,1278.07c-26.48,0-48.02-21.54-48.02-48.02s21.55-48.02,48.02-48.02,48.02,21.54,48.02,48.02-21.55,48.02-48.02,48.02h0ZM876.19,1164.34c-36.23,0-65.71,29.48-65.71,65.71s29.48,65.71,65.71,65.71,65.71-29.48,65.71-65.71-29.48-65.71-65.71-65.71h0Z"/>
    <path d="M1324.55,1278.07c-26.48,0-48.02-21.54-48.02-48.02s21.54-48.02,48.02-48.02,48.02,21.54,48.02,48.02-21.55,48.02-48.02,48.02h0ZM1324.55,1164.34c-36.23,0-65.71,29.48-65.71,65.71s29.48,65.71,65.71,65.71c18.94,0,36.02-8.06,48.02-20.93v13.3c0,4.88,3.96,8.84,8.84,8.84s8.84-3.96,8.84-8.84v-58.08c0-36.23-29.48-65.71-65.71-65.71h0Z"/>
    <path d="M1638.58,1269.39c-8.1,5.68-17.62,8.68-27.55,8.68-26.48,0-48.02-21.54-48.02-48.02s21.55-48.02,48.02-48.02c8,0,15.91,2,22.89,5.79,4.3,2.33,9.66.74,11.99-3.55,2.33-4.29.74-9.66-3.55-11.99-9.56-5.19-20.39-7.93-31.32-7.93-36.23,0-65.71,29.48-65.71,65.71s29.48,65.71,65.71,65.71c13.58,0,26.61-4.11,37.7-11.89,4-2.8,4.97-8.32,2.16-12.31-2.81-4-8.31-4.96-12.32-2.16h0Z"/>
    <path d="M2082.53,1278.07c-26.49,0-48.03-21.54-48.03-48.02s21.54-48.02,48.03-48.02,48.02,21.54,48.02,48.02-21.55,48.02-48.02,48.02h0ZM2082.53,1164.34c-36.23,0-65.71,29.48-65.71,65.71s29.48,65.71,65.71,65.71c18.94,0,36.02-8.06,48.02-20.93v13.3c0,4.88,3.96,8.84,8.84,8.84s8.84-3.96,8.84-8.84v-58.08c0-36.23-29.48-65.71-65.71-65.71h0Z"/>
    <path d="M2235.44,1279.29c-26.48,0-48.02-21.55-48.02-48.02s21.54-48.03,48.02-48.03,48.02,21.54,48.02,48.03-21.55,48.02-48.02,48.02h0ZM2235.44,1165.55c-18.94,0-36.02,8.06-48.02,20.93v-66.78c0-4.88-3.96-8.84-8.84-8.84s-8.84,3.96-8.84,8.84v111.57c0,36.23,29.48,65.71,65.71,65.71s65.71-29.48,65.71-65.71-29.48-65.71-65.71-65.71h0Z"/>
    <path d="M1988.03,1278.07h-91.45v-158.38c0-4.88-3.96-8.84-8.84-8.84s-8.84,3.96-8.84,8.84v167.22c0,4.89,3.96,8.84,8.84,8.84h100.3c4.88,0,8.84-3.96,8.84-8.84s-3.96-8.84-8.84-8.84h0Z"/>
    <path d="M391.89,1202.26h-46.01v-70.61h46.01c19.47,0,35.3,15.84,35.3,35.3s-15.84,35.3-35.3,35.3h0ZM391.89,1113.97h-54.85c-4.88,0-8.84,3.96-8.84,8.84v165.31c0,4.88,3.96,8.84,8.84,8.84s8.84-3.96,8.84-8.84v-68.18h46.01c29.22,0,52.99-23.77,52.99-52.99s-23.77-52.99-52.99-52.99h0Z"/>
    <path d="M1693.69,1221.2c4.16-22.27,23.75-39.18,47.21-39.18s43.05,16.91,47.21,39.18h-94.42ZM1740.9,1164.34c-36.24,0-65.71,29.48-65.71,65.71s29.48,65.71,65.71,65.71c12.69,0,25.01-3.63,35.62-10.49,4.1-2.65,5.28-8.12,2.63-12.23-2.65-4.1-8.13-5.28-12.22-2.63-7.75,5.01-16.76,7.65-26.03,7.65-23.46,0-43.05-16.91-47.21-39.18h104.08c4.88,0,8.84-3.96,8.84-8.84,0-36.23-29.48-65.71-65.71-65.71h0Z"/>
    <path d="M484.26,1221.19c4.16-22.27,23.75-39.18,47.21-39.18s43.05,16.91,47.21,39.18h-94.42ZM531.47,1164.32c-36.23,0-65.71,29.48-65.71,65.71s29.48,65.71,65.71,65.71c12.69,0,25.01-3.63,35.62-10.49,4.1-2.65,5.28-8.12,2.63-12.23-2.65-4.1-8.13-5.28-12.23-2.63-7.75,5.01-16.75,7.66-26.03,7.66-23.46,0-43.05-16.91-47.21-39.19h104.07c4.88,0,8.84-3.96,8.84-8.84,0-36.23-29.48-65.71-65.71-65.71h0Z"/>
  </g>
</svg>