<?xml version="1.0" encoding="UTF-8"?>
<svg id="Layer_1" data-name="Layer 1" xmlns="http://www.w3.org/2000/svg" xmlns:xlink="http://www.w3.org/1999/xlink" viewBox="0 0 1524.71 1659.41">
  <defs>
    <style>
      .cls-1 {
        fill: #caf240;
      }

      .cls-2 {
        fill: #fff;
      }

      .cls-3 {
        fill: none;
      }

      .cls-4 {
        clip-path: url(#clippath-1);
      }

      .cls-5 {
        clip-path: url(#clippath);
      }
    </style>
    <clipPath id="clippath">
      <ellipse class="cls-3" cx="686.66" cy="647.21" rx="510.19" ry="627.88"/>
    </clipPath>
    <clipPath id="clippath-1">
      <ellipse class="cls-3" cx="881.06" cy="1074.03" rx="467.17" ry="566.05"/>
    </clipPath>
  </defs>
  <g class="cls-5">
    <g>
      <polygon class="cls-2" points="520.84 411.83 474.99 655.34 429.14 411.83 175.61 411.83 175.61 882.58 336.24 882.58 336.24 613.93 394.92 882.58 555.06 882.58 611.39 624.68 611.39 882.58 772.02 882.58 772.02 411.83 520.84 411.83 520.84 411.83"/>
      <polygon class="cls-2" points="1237.24 440.55 1065.81 440.55 1010.17 592.2 954.53 440.55 783.1 440.55 927.6 748.54 927.6 882.58 1092.74 882.58 1092.74 748.54 1237.24 440.55 1237.24 440.55"/>
    </g>
  </g>
  <g class="cls-4">
    <g>
      <path class="cls-1" d="M683.64,994.63c0,26-21.07,47.07-47.07,47.07h-35.19v-94.14h35.19c26,0,47.07,21.07,47.07,47.07h0ZM850.07,1255.51c-6.98-64.13,3.11-165.04-76.78-183.48,43.59-18.44,74.17-61.6,74.17-111.91h0c0-67.08-54.38-121.47-121.47-121.47h-312.1v470.75h187.48v-156.63h28.11c13.65,0,25.11,10.26,26.6,23.83,1.96,17.91,4.79,43.42,7.61,67.56,4.92,42.11,9.22,56.73,21.63,65.24h180.44s-11.54-15.77-15.69-53.9h0Z"/>
      <polygon class="cls-1" points="1219.54 1074.23 1368.73 838.66 1167.15 838.66 1110.51 958.02 1058.12 838.66 853.62 838.66 991.55 1074.23 840.23 1309.41 1047.75 1309.41 1103.06 1191.95 1158.73 1309.41 1372.19 1309.41 1219.54 1074.23 1219.54 1074.23"/>
    </g>
  </g>
</svg>