<?xml version="1.0" encoding="UTF-8" standalone="no"?>
<svg
   id="Layer_1"
   data-name="Layer 1"
   viewBox="0 0 1820.0001 624.78674"
   version="1.1"
   sodipodi:docname="Logo 4.svg"
   inkscape:export-filename="..\..\..\Logo 3.png"
   inkscape:export-xdpi="96"
   inkscape:export-ydpi="96"
   width="1820"
   height="624.78674"
   inkscape:version="1.3.2 (091e20e, 2023-11-25, custom)"
   xmlns:inkscape="http://www.inkscape.org/namespaces/inkscape"
   xmlns:sodipodi="http://sodipodi.sourceforge.net/DTD/sodipodi-0.dtd"
   xmlns="http://www.w3.org/2000/svg"
   xmlns:svg="http://www.w3.org/2000/svg">
  <sodipodi:namedview
     id="namedview18"
     pagecolor="#ffffff"
     bordercolor="#000000"
     borderopacity="0.25"
     inkscape:showpageshadow="2"
     inkscape:pageopacity="0.0"
     inkscape:pagecheckerboard="0"
     inkscape:deskcolor="#d1d1d1"
     inkscape:zoom="0.52178141"
     inkscape:cx="848.05628"
     inkscape:cy="543.33097"
     inkscape:window-width="1920"
     inkscape:window-height="1051"
     inkscape:window-x="-9"
     inkscape:window-y="-9"
     inkscape:window-maximized="1"
     inkscape:current-layer="Layer_1" />
  <defs
     id="defs1">
    <style
       id="style1">
      .cls-1 {
        fill: #caf240;
      }
    </style>
  </defs>
  <path
     id="path1"
     style="fill:#ffffff;stroke-width:0.943912"
     d="M 224.55859,0.27734375 C 192.52335,2.7458013 160.73471,5.302878 136.39258,10.541016 111.15822,15.971145 93.909791,24.275845 76.980469,41.205078 60.051146,58.134311 43.440618,83.686684 31.941406,123.93359 20.442195,164.18051 14.055005,219.11956 9.2636719,264.79688 5.3921361,301.70546 2.6285494,332.18759 0,361.88672 v 19.49414 C 0,386.13528 4.3338062,390 9.6875,390 h 130.08984 c 5.3437,0 9.68555,-3.85581 9.68555,-8.61914 V 167.5918 l 52.9375,215.63281 c 0.97067,3.95313 4.9039,6.77539 9.45703,6.77539 H 353.06445 L 405.48047,176.49414 V 390 h 67.6875 c 5.72326,-0.40369 11.12656,-0.8209 15.86133,-1.26758 16.92941,-1.5971 26.51232,-3.51283 35.13672,-6.70703 8.62439,-3.1942 16.29035,-7.66668 22.35937,-16.29101 6.06902,-8.62434 10.53998,-21.4019 14.37305,-49.19141 1.88425,-13.6607 3.61425,-30.97258 5.26562,-50.10547 L 562.12891,13.179688 c 0,-6.9714002 -3.63235,-11.1925553 -11.34766,-12.39453175 -1.95136,-0.3027191 -3.80225,-0.49804687 -5.52344,-0.49804687 h -216 c -4.65319,0 -8.65503,2.94565982 -9.51562,7.02343752 L 278.5625,201.88867 v -0.01 L 237.38477,7.3027344 c -0.86059,-4.068868 -4.86438,-7.02539065 -9.51758,-7.02539065 z"
     inkscape:export-filename="..\Final final\Logo 1.png"
     inkscape:export-xdpi="96"
     inkscape:export-ydpi="96" />
  <path
     id="path38"
     style="stroke-width:0.946859"
     class="cls-1"
     d="m 950.96875,0 c -5.32368,0 -9.62695,3.8618502 -9.62695,8.6191406 V 269.20898 c 8.32743,24.51177 17.38918,48.45593 31.60742,68.41602 14.53086,20.39897 34.43968,36.64249 55.02148,52.36523 h 77.2246 c 5.3137,0 9.627,-3.8599 9.627,-8.61718 V 260.22656 h 26.0078 c 12.6288,0 23.2364,8.50242 24.6074,19.7461 1.8213,14.84524 4.4331,35.97201 7.0449,55.96875 4.0328,30.88207 7.6157,43.91758 16.3418,51.39843 2.0014,1.7112 4.6522,2.66016 7.4141,2.66016 h 147.8926 c 6.7247,0 11.3792,-6.00339 9.0175,-11.63867 v -0.0176 c -3.022,-7.23 -6.3858,-18.03517 -8.207,-33.00586 -6.4545,-53.12757 2.8823,-136.7247 -71.0488,-152 40.3278,-15.27528 68.6367,-51.04016 68.6367,-92.70898 0,-27.791192 -12.5778,-52.949377 -32.9219,-71.154301 C 1289.2633,11.269687 1261.1643,0 1230.1328,0 Z m 183.33595,87.615234 c 3.478,0.08749 7.7774,0.44812 13.1211,1.097657 16.5114,2.006836 35.144,6.961229 40.998,21.197269 4.6632,11.36013 0.3004,34.69982 -15.7207,46.55273 l -0.01,-0.01 c -12.1884,9.01289 -25.6185,12.04062 -37.9571,11.90626 -6.1843,-0.0716 -9.1459,-0.67968 -12.3281,-5.10547 -3.5325,-4.91856 -5.2038,-11.30688 -4.9336,-22.61329 0.4703,-19.13666 0.4696,-44.213335 1.5703,-46.865229 1.7713,-4.226467 4.8257,-6.422631 15.2598,-6.160157 z" />
  <path
     id="path2-4"
     style="fill:#ffffff;stroke-width:0.856376"
     d="m 842.57617,50 h -55.84179 c -4.6924,0 -8.87855,3.152855 -10.43165,7.859375 L 735.84766,180.55469 702.36133,57.019531 C 701.07403,52.834009 697.40211,50 693.25781,50 l -121.19922,0.724609 c -7.07609,0 -9.16837,8.433161 -6.59375,15.435547 5.89675,16.053358 12.82424,39.513944 20.92188,50.763674 12.40808,17.25427 25.04707,36.26565 34.58984,62.65039 9.54276,26.38473 38.19678,86.49347 41.69336,92.92187 V 390 h 0.008 129.38086 c 4.9831,0 9.01954,-4.29171 9.01953,-9.58984 v -40.46875 c 0,-20.89233 -1.85275,-47.70106 -3.31445,-57.98829 -1.47,-10.28719 -3.93633,-8.59212 -0.49805,-15.43554 0.65201,-1.29481 57.00397,-109.56498 89.63282,-172.255861 l -17.75,-32.367188 c -2.85033,-2.259787 -6.2322,-4.291907 -10.7873,-6.316406 C 853.98823,53.634514 848.54315,51.693718 842.57617,50 Z"
     inkscape:export-filename="..\Final final\Logo 11.png"
     inkscape:export-xdpi="96"
     inkscape:export-ydpi="96" />
  <path
     id="path44"
     style="stroke-width:0.946859"
     class="cls-1"
     d="m 1365.0156,0 c -7.4352,0 -12.0673,7.2307127 -8.3047,12.982422 L 1475.8633,195.16602 1345.3926,376.71289 C 1341.2697,382.44665 1345.873,390 1353.4883,390 h 157.8887 c 4.0719,0 7.9764,-1.38781 10.9785,-3.85156 23.5254,-19.32468 39.7676,-54.77692 56.6894,-93.45313 l 48.9024,92.37696 c 1.5911,3.01017 4.9844,4.92773 8.707,4.92773 h 10.0059 c 18.3941,-8.69974 36.7368,-18.06755 54.5625,-34.16797 18.5926,-16.79358 36.6237,-40.91324 54.6191,-65.47461 l -69.0137,-95.1914 73.6114,-104.066411 20.1367,-28.470703 C 1774.6155,49.479495 1767.9492,36.590752 1757.1211,25.234375 1748.5046,16.197461 1737.2289,8.1399366 1725.0859,0.40234375 1711.158,0.77252442 1697.7964,1.482397 1685.5723,2.875 1665.0137,5.2170868 1647.66,9.4802239 1630.8711,14.083984 L 1585.9297,98.882812 1537.4551,0 Z" />
  <g
     id="g18"
     transform="matrix(0.94558717,0,0,1,-323.48537,-530.88324)"
     style="fill:#ffffff">
    <path
       d="m 1452.68,1025.03 c -13.64,0 -26.43,5.1 -36.43,14.33 v -7.3 c 0,-4.83 -3.86,-8.74 -8.63,-8.74 -4.77,0 -8.63,3.91 -8.63,8.74 v 40.44 c -0.39,2.91 -0.61,5.86 -0.54,8.86 l 0.54,22.29 v 43.28 c 0,4.83 3.86,8.74 8.63,8.74 4.77,0 8.63,-3.91 8.63,-8.74 v -73.48 c 1.27,-7.35 4.69,-14.14 9.96,-19.62 7.02,-7.29 16.42,-11.31 26.47,-11.31 20.09,0 36.68,16.56 36.98,36.92 l 1.01,67.62 c 0.07,4.78 3.92,8.61 8.62,8.61 h 0.14 c 4.76,-0.08 8.57,-4.05 8.49,-8.88 l -1.01,-67.62 c -0.45,-29.85 -24.78,-54.14 -54.23,-54.14 z"
       id="path5"
       style="fill:#ffffff" />
    <path
       d="m 1183.52,1025.72 c -15.52,0 -29.24,7.81 -37.63,19.72 -8.4,-11.91 -22.12,-19.72 -37.64,-19.72 -10.98,0 -21.06,3.91 -29.01,10.42 v -4.07 c 0,-4.83 -3.86,-8.74 -8.63,-8.74 -4.77,0 -8.63,3.91 -8.63,8.74 v 114.86 c 0,4.83 3.86,8.74 8.63,8.74 4.77,0 8.63,-3.91 8.63,-8.74 v -74.32 c 0,-16.22 13.01,-29.4 29.01,-29.4 16,0 29.01,13.19 29.01,29.4 v 74.32 c 0,4.83 3.86,8.74 8.63,8.74 4.77,0 8.63,-3.91 8.63,-8.74 v -74.32 c 0,-16.22 13.01,-29.4 29.01,-29.4 16,0 29.01,13.19 29.01,29.4 v 74.32 c 0,4.83 3.86,8.74 8.63,8.74 4.77,0 8.63,-3.91 8.63,-8.74 v -74.32 c 0,-25.86 -20.75,-46.89 -46.26,-46.89 v 0 z"
       id="path6"
       style="fill:#ffffff" />
    <path
       d="m 1036.63,1029.3 c -20.58,-8.64 -42.2,-3.8 -58.1,11.22 v -8.45 c 0,-4.83 -3.86,-8.74 -8.63,-8.74 -4.77,0 -8.63,3.91 -8.63,8.74 v 114.86 c 0,4.83 3.86,8.74 8.63,8.74 4.77,0 8.63,-3.91 8.63,-8.74 v -76.89 c 10.52,-22.87 31.48,-33 51.5,-24.59 4.4,1.84 9.45,-0.27 11.27,-4.73 1.82,-4.46 -0.26,-9.58 -4.67,-11.42 z"
       id="path7"
       style="fill:#ffffff" />
    <path
       d="m 785.37,974.72 h -2.71 c -26.58,0 -48.2,21.92 -48.2,48.86 v 1.39 h -9.64 c -4.76,0 -8.63,3.91 -8.63,8.74 0,4.83 3.86,8.74 8.63,8.74 h 9.64 v 104.47 c 0,4.83 3.86,8.74 8.63,8.74 4.77,0 8.63,-3.91 8.63,-8.74 v -104.47 h 20.81 c 4.76,0 8.63,-3.91 8.63,-8.74 0,-4.83 -3.86,-8.74 -8.63,-8.74 h -20.81 v -1.39 c 0,-17.3 13.88,-31.37 30.95,-31.37 h 2.71 c 4.76,0 8.63,-3.91 8.63,-8.74 0,-4.83 -3.86,-8.74 -8.63,-8.74 v 0 z"
       id="path8"
       style="fill:#ffffff" />
    <path
       d="m 700.21,1029.3 c -20.58,-8.64 -42.2,-3.8 -58.1,11.22 v -8.45 c 0,-4.83 -3.86,-8.74 -8.63,-8.74 -4.77,0 -8.63,3.91 -8.63,8.74 v 114.86 c 0,4.83 3.86,8.74 8.63,8.74 4.77,0 8.63,-3.91 8.63,-8.74 v -76.89 c 10.52,-22.87 31.48,-33 51.5,-24.59 4.4,1.84 9.45,-0.27 11.27,-4.73 1.82,-4.46 -0.26,-9.58 -4.67,-11.42 z"
       id="path9"
       style="fill:#ffffff" />
    <path
       d="m 876.71,1136.98 c -25.83,0 -46.85,-21.3 -46.85,-47.49 0,-26.19 21.02,-47.48 46.85,-47.48 25.83,0 46.85,21.3 46.85,47.48 0,26.18 -21.02,47.49 -46.85,47.49 z m 0,-112.46 c -35.35,0 -64.1,29.15 -64.1,64.97 0,35.82 28.76,64.97 64.1,64.97 35.34,0 64.1,-29.15 64.1,-64.97 0,-35.82 -28.76,-64.97 -64.1,-64.97 z"
       id="path10"
       style="fill:#ffffff" />
    <path
       d="m 1314.11,1136.98 c -25.83,0 -46.85,-21.3 -46.85,-47.49 0,-26.19 21.02,-47.48 46.85,-47.48 25.83,0 46.85,21.3 46.85,47.48 0,26.18 -21.02,47.49 -46.85,47.49 z m 0,-112.46 c -35.35,0 -64.1,29.15 -64.1,64.97 0,35.82 28.76,64.97 64.1,64.97 18.48,0 35.14,-7.97 46.85,-20.69 v 13.15 c 0,4.83 3.86,8.74 8.63,8.74 4.77,0 8.63,-3.91 8.63,-8.74 v -57.43 c 0,-35.82 -28.76,-64.97 -64.1,-64.97 v 0 z"
       id="path11"
       style="fill:#ffffff" />
    <path
       d="m 1620.46,1128.4 c -7.9,5.62 -17.19,8.58 -26.88,8.58 -25.83,0 -46.85,-21.3 -46.85,-47.49 0,-26.19 21.02,-47.48 46.85,-47.48 7.8,0 15.52,1.98 22.33,5.72 4.19,2.31 9.43,0.73 11.7,-3.51 2.27,-4.24 0.72,-9.55 -3.46,-11.86 -9.32,-5.13 -19.89,-7.84 -30.56,-7.84 -35.35,0 -64.1,29.15 -64.1,64.97 0,35.82 28.76,64.97 64.1,64.97 13.25,0 25.96,-4.06 36.78,-11.75 3.9,-2.77 4.85,-8.22 2.11,-12.18 -2.74,-3.95 -8.11,-4.91 -12.02,-2.14 v 0 z"
       id="path12"
       style="fill:#ffffff" />
    <path
       d="m 2053.56,1136.98 c -25.84,0 -46.85,-21.3 -46.85,-47.49 0,-26.19 21.02,-47.48 46.85,-47.48 25.83,0 46.85,21.3 46.85,47.48 0,26.18 -21.02,47.49 -46.85,47.49 z m 0,-112.46 c -35.35,0 -64.11,29.15 -64.11,64.97 0,35.82 28.76,64.97 64.11,64.97 18.48,0 35.14,-7.97 46.85,-20.69 v 13.15 c 0,4.83 3.86,8.74 8.63,8.74 4.77,0 8.63,-3.91 8.63,-8.74 v -57.43 c 0,-35.82 -28.76,-64.97 -64.1,-64.97 v 0 z"
       id="path13"
       style="fill:#ffffff" />
    <path
       d="m 2202.74,1138.18 c -25.83,0 -46.85,-21.3 -46.85,-47.49 0,-26.19 21.02,-47.49 46.85,-47.49 25.83,0 46.85,21.3 46.85,47.49 0,26.19 -21.02,47.49 -46.85,47.49 z m 0,-112.46 c -18.48,0 -35.14,7.97 -46.85,20.69 v -66.04 c 0,-4.83 -3.86,-8.74 -8.63,-8.74 -4.77,0 -8.63,3.91 -8.63,8.74 v 110.32 c 0,35.83 28.76,64.97 64.1,64.97 35.34,0 64.1,-29.15 64.1,-64.97 0,-35.82 -28.76,-64.98 -64.1,-64.98 v 0 z"
       id="path14"
       style="fill:#ffffff" />
    <path
       d="m 1961.38,1136.98 h -89.22 v -156.6 c 0,-4.83 -3.86,-8.74 -8.63,-8.74 -4.77,0 -8.63,3.91 -8.63,8.74 v 165.35 c 0,4.83 3.86,8.74 8.63,8.74 h 97.84 c 4.76,0 8.63,-3.91 8.63,-8.74 0,-4.83 -3.86,-8.74 -8.63,-8.74 v 0 z"
       id="path15"
       style="fill:#ffffff" />
    <path
       d="M 404.24,1062.02 H 359.36 V 992.2 h 44.88 c 18.99,0 34.44,15.66 34.44,34.91 0,19.25 -15.45,34.91 -34.44,34.91 z m 0,-87.3 h -53.51 c -4.76,0 -8.63,3.91 -8.63,8.74 v 163.46 c 0,4.83 3.86,8.74 8.63,8.74 4.77,0 8.63,-3.91 8.63,-8.74 v -67.42 h 44.88 c 28.5,0 51.69,-23.5 51.69,-52.39 0,-28.89 -23.19,-52.39 -51.69,-52.39 z"
       id="path16"
       style="fill:#ffffff" />
    <path
       d="m 1674.23,1080.75 c 4.06,-22.02 23.17,-38.74 46.06,-38.74 22.89,0 41.99,16.72 46.05,38.74 z m 46.06,-56.23 c -35.35,0 -64.11,29.15 -64.11,64.97 0,35.82 28.76,64.97 64.11,64.97 12.38,0 24.39,-3.58 34.75,-10.37 4,-2.62 5.15,-8.03 2.56,-12.09 -2.59,-4.06 -7.93,-5.22 -11.92,-2.6 -7.56,4.95 -16.35,7.57 -25.39,7.57 -22.89,0 -42,-16.72 -46.06,-38.74 h 101.54 c 4.76,0 8.63,-3.91 8.63,-8.74 0,-35.82 -28.76,-64.97 -64.1,-64.97 v 0 z"
       id="path17"
       style="fill:#ffffff" />
    <path
       d="m 494.36,1080.73 c 4.06,-22.02 23.17,-38.74 46.05,-38.74 22.88,0 42,16.72 46.06,38.74 z m 46.05,-56.23 c -35.35,0 -64.1,29.15 -64.1,64.97 0,35.82 28.76,64.98 64.1,64.98 12.38,0 24.4,-3.59 34.75,-10.37 4,-2.62 5.15,-8.03 2.56,-12.09 -2.58,-4.06 -7.93,-5.22 -11.93,-2.6 -7.56,4.95 -16.34,7.57 -25.39,7.57 -22.89,0 -42,-16.72 -46.05,-38.75 h 101.53 c 4.76,0 8.63,-3.91 8.63,-8.74 0,-35.83 -28.76,-64.97 -64.1,-64.97 z"
       id="path18"
       style="fill:#ffffff" />
  </g>
</svg>
