<?xml version="1.0" encoding="UTF-8" standalone="no"?>
<svg
   id="Layer_1"
   data-name="Layer 1"
   viewBox="0 0 1070.0002 1070.0001"
   version="1.1"
   sodipodi:docname="Logo Icon White.svg"
   inkscape:export-filename="..\..\..\Logo 3.png"
   inkscape:export-xdpi="96"
   inkscape:export-ydpi="96"
   width="1070.0001"
   height="1070.0001"
   inkscape:version="1.3.2 (091e20e, 2023-11-25, custom)"
   xmlns:inkscape="http://www.inkscape.org/namespaces/inkscape"
   xmlns:sodipodi="http://sodipodi.sourceforge.net/DTD/sodipodi-0.dtd"
   xmlns="http://www.w3.org/2000/svg"
   xmlns:svg="http://www.w3.org/2000/svg">
  <sodipodi:namedview
     id="namedview18"
     pagecolor="#ffffff"
     bordercolor="#000000"
     borderopacity="0.25"
     inkscape:showpageshadow="2"
     inkscape:pageopacity="0.0"
     inkscape:pagecheckerboard="0"
     inkscape:deskcolor="#d1d1d1"
     inkscape:zoom="0.52178141"
     inkscape:cx="743.60641"
     inkscape:cy="798.22698"
     inkscape:window-width="1920"
     inkscape:window-height="1051"
     inkscape:window-x="-9"
     inkscape:window-y="-9"
     inkscape:window-maximized="1"
     inkscape:current-layer="Layer_1" />
  <defs
     id="defs1">
    <style
       id="style1">
      .cls-1 {
        fill: #caf240;
      }
    </style>
  </defs>
  <rect
     style="opacity:1;fill:#121721;fill-opacity:1;stroke:#000000;stroke-width:0.428384"
     id="rect1"
     width="1069.5717"
     height="1069.5717"
     x="0.21421216"
     y="0.21420288"
     inkscape:export-filename="Logo Icon White.png"
     inkscape:export-xdpi="96"
     inkscape:export-ydpi="96" />
  <path
     d="M 367.89249,401.60544 335.68257,249.4076 c -0.67315,-3.18268 -3.80413,-5.49483 -7.44389,-5.49483 H 157.57703 c -4.17985,0 -7.57696,3.01554 -7.57696,6.74144 V 542.0127 c 0,3.71894 3.38928,6.74144 7.57696,6.74144 h 101.75671 c 4.17985,0 7.57696,-3.01553 7.57696,-6.74144 V 374.78591 l 41.40715,168.6684 c 0.75926,3.09215 3.83544,5.29983 7.39693,5.29983 h 110.45299 l 41.00012,-167.00393 v 167.00393 h 127.2272 l -4.69646,-294.75009 c 0,-5.45306 -2.84136,-8.75412 -8.87632,-9.69431 -1.52635,-0.23679 -2.97443,-0.39 -4.32074,-0.39 H 407.54629 c -3.63975,0 -6.77073,2.30518 -7.44389,5.49483 L 367.89249,401.6124 Z"
     id="path1"
     style="fill:#f4f3ef;stroke-width:0.738329;fill-opacity:1"
     inkscape:export-filename="Logo Icon White.png"
     inkscape:export-xdpi="96"
     inkscape:export-ydpi="96" />
  <path
     d="m 667.33841,548.75414 h 101.20108 c 3.89779,0 7.05507,-3.35682 7.05507,-7.50104 v -31.65495 c 0,-16.34205 -1.44872,-37.31181 -2.59206,-45.35851 -1.14984,-8.04669 -3.07929,-6.72054 -0.38985,-12.07349 0.59127,-1.1742 60.67655,-116.61841 81.28318,-156.20954 3.0728,-5.90552 -0.94201,-13.151 -7.29552,-13.151 h -82.2251 c -3.67041,0 -6.94462,2.46581 -8.15946,6.14726 l -31.64397,95.97327 -26.19358,-96.62945 c -1.00693,-3.27392 -3.87839,-5.49108 -7.12007,-5.49108 l -94.80213,0.56637 c -5.53495,0 -7.17204,6.59622 -5.15815,12.07351 4.61244,12.55699 10.03046,30.90898 16.36446,39.70855 9.70564,13.49635 19.59317,28.36719 27.05756,49.00542 7.46437,20.63823 29.877,67.65443 32.61205,72.68275 v 91.91193"
     id="path2"
     style="fill:#f4f3ef;stroke-width:0.669859;fill-opacity:1" />
  <path
     class="cls-1"
     d="m 554.82736,816.97008 c -2.36382,-5.65532 -4.99389,-14.10677 -6.41844,-25.81687 -5.04872,-41.55657 2.25431,-106.94675 -55.57487,-118.89519 31.54462,-11.94836 53.68844,-39.92369 53.68844,-72.51718 0,-21.73835 -9.83908,-41.41638 -25.75227,-55.65633 -15.91319,-14.23995 -37.89266,-23.05582 -62.16555,-23.05582 H 240.24262 c -4.1642,0 -7.53002,3.02038 -7.53002,6.74155 v 291.5685 c 0,3.72821 3.37364,6.74157 7.53002,6.74157 h 120.63645 c 4.15638,0 7.53002,-3.0204 7.53002,-6.74157 v -94.76012 h 20.3435 c 9.87826,0 18.17531,6.65044 19.24771,15.44528 1.42462,11.61201 3.46758,28.13657 5.51053,43.77802 3.15446,24.1561 5.95662,34.35249 12.78219,40.20406 1.5655,1.33851 3.63974,2.08137 5.8001,2.08137 h 115.68175 c 5.26007,0 8.89981,-4.69533 7.05249,-9.10327 z M 413.67517,643.40675 c -9.53378,7.0499 -20.0382,9.41857 -29.68948,9.31344 -4.83737,-0.0563 -7.15425,-0.5326 -9.64337,-3.99447 -2.76313,-3.84734 -4.07026,-8.84393 -3.85891,-17.68784 0.36787,-14.96875 0.36787,-34.58373 1.22884,-36.65805 1.84732,-4.40794 5.47924,-5.99171 22.19864,-3.95943 12.91525,1.56975 27.49001,5.4451 32.06902,16.58057 3.64756,8.88594 0.23481,27.14139 -12.29692,36.41274 z"
     id="path3"
     style="stroke-width:0.740635" />
  <path
     class="cls-1"
     d="m 815.83327,673.68765 100.6609,-142.30836 c 3.17793,-4.49203 -0.43052,-10.3506 -6.36368,-10.3506 H 782.09708 c -2.5596,0 -4.88438,1.31748 -5.98799,3.38479 l -39.19988,73.96083 -37.91612,-77.34562 H 564.11076 c -5.81583,0 -9.43992,5.65534 -6.49681,10.15437 L 650.8153,673.68765 548.76115,815.6947 c -3.22494,4.48499 0.37569,10.39265 6.33239,10.39265 h 123.5013 c 3.18575,0 6.23844,-1.08625 8.58669,-3.01344 18.40231,-15.11589 31.1062,-42.84595 44.34246,-73.09885 l 38.25263,72.25791 c 1.24456,2.35466 3.8981,3.85438 6.80993,3.85438 h 135.86864 c 5.97235,0 9.57298,-5.9287 6.31675,-10.41369 z"
     id="path4"
     style="stroke-width:0.740635" />
</svg>
