<?xml version="1.0" encoding="UTF-8" standalone="no"?>
<svg
   id="Layer_1"
   data-name="Layer 1"
   viewBox="0 0 1820.0002 624.7868"
   version="1.1"
   sodipodi:docname="Logo 4.svg"
   inkscape:export-filename="..\..\..\Logo 3.png"
   inkscape:export-xdpi="96"
   inkscape:export-ydpi="96"
   width="1820.0001"
   height="624.7868"
   inkscape:version="1.3.2 (091e20e, 2023-11-25, custom)"
   xmlns:inkscape="http://www.inkscape.org/namespaces/inkscape"
   xmlns:sodipodi="http://sodipodi.sourceforge.net/DTD/sodipodi-0.dtd"
   xmlns="http://www.w3.org/2000/svg"
   xmlns:svg="http://www.w3.org/2000/svg">
  <sodipodi:namedview
     id="namedview18"
     pagecolor="#ffffff"
     bordercolor="#000000"
     borderopacity="0.25"
     inkscape:showpageshadow="2"
     inkscape:pageopacity="0.0"
     inkscape:pagecheckerboard="0"
     inkscape:deskcolor="#d1d1d1"
     inkscape:zoom="0.52178141"
     inkscape:cx="848.05628"
     inkscape:cy="543.33097"
     inkscape:window-width="1920"
     inkscape:window-height="1051"
     inkscape:window-x="-9"
     inkscape:window-y="-9"
     inkscape:window-maximized="1"
     inkscape:current-layer="Layer_1" />
  <defs
     id="defs1">
    <inkscape:path-effect
       effect="bspline"
       id="path-effect45"
       is_visible="true"
       lpeversion="1.3"
       weight="33.333333"
       steps="2"
       helper_size="0"
       apply_no_weight="true"
       apply_with_weight="true"
       only_selected="false"
       uniform="false" />
    <inkscape:path-effect
       effect="bspline"
       id="path-effect44"
       is_visible="true"
       lpeversion="1.3"
       weight="33.333333"
       steps="2"
       helper_size="0"
       apply_no_weight="true"
       apply_with_weight="true"
       only_selected="false"
       uniform="false" />
    <inkscape:path-effect
       effect="bspline"
       id="path-effect43"
       is_visible="true"
       lpeversion="1.3"
       weight="33.333333"
       steps="2"
       helper_size="0"
       apply_no_weight="true"
       apply_with_weight="true"
       only_selected="false"
       uniform="false" />
    <inkscape:path-effect
       effect="bspline"
       id="path-effect42"
       is_visible="true"
       lpeversion="1.3"
       weight="33.333333"
       steps="2"
       helper_size="0"
       apply_no_weight="true"
       apply_with_weight="true"
       only_selected="false"
       uniform="false" />
    <inkscape:path-effect
       effect="bspline"
       id="path-effect41"
       is_visible="true"
       lpeversion="1.3"
       weight="33.333333"
       steps="2"
       helper_size="0"
       apply_no_weight="true"
       apply_with_weight="true"
       only_selected="false"
       uniform="false" />
    <inkscape:path-effect
       effect="bspline"
       id="path-effect40"
       is_visible="true"
       lpeversion="1.3"
       weight="33.333333"
       steps="2"
       helper_size="0"
       apply_no_weight="true"
       apply_with_weight="true"
       only_selected="false"
       uniform="false" />
    <inkscape:path-effect
       effect="bspline"
       id="path-effect39"
       is_visible="true"
       lpeversion="1.3"
       weight="33.333333"
       steps="2"
       helper_size="0"
       apply_no_weight="true"
       apply_with_weight="true"
       only_selected="false"
       uniform="false" />
    <inkscape:path-effect
       effect="bspline"
       id="path-effect38"
       is_visible="true"
       lpeversion="1.3"
       weight="33.333333"
       steps="2"
       helper_size="0"
       apply_no_weight="true"
       apply_with_weight="true"
       only_selected="false"
       uniform="false" />
    <inkscape:path-effect
       effect="bspline"
       id="path-effect37"
       is_visible="true"
       lpeversion="1.3"
       weight="33.333333"
       steps="2"
       helper_size="0"
       apply_no_weight="true"
       apply_with_weight="true"
       only_selected="false"
       uniform="false" />
    <inkscape:path-effect
       effect="bspline"
       id="path-effect36"
       is_visible="true"
       lpeversion="1.3"
       weight="33.333333"
       steps="2"
       helper_size="0"
       apply_no_weight="true"
       apply_with_weight="true"
       only_selected="false"
       uniform="false" />
    <inkscape:path-effect
       effect="bspline"
       id="path-effect35"
       is_visible="true"
       lpeversion="1.3"
       weight="33.333333"
       steps="2"
       helper_size="0"
       apply_no_weight="true"
       apply_with_weight="true"
       only_selected="false"
       uniform="false" />
    <inkscape:path-effect
       effect="bspline"
       id="path-effect34"
       is_visible="true"
       lpeversion="1.3"
       weight="33.333333"
       steps="2"
       helper_size="0"
       apply_no_weight="true"
       apply_with_weight="true"
       only_selected="false"
       uniform="false" />
    <inkscape:path-effect
       effect="bspline"
       id="path-effect33"
       is_visible="true"
       lpeversion="1.3"
       weight="33.333333"
       steps="2"
       helper_size="0"
       apply_no_weight="true"
       apply_with_weight="true"
       only_selected="false"
       uniform="false" />
    <inkscape:path-effect
       effect="bspline"
       id="path-effect32"
       is_visible="true"
       lpeversion="1.3"
       weight="33.333333"
       steps="2"
       helper_size="0"
       apply_no_weight="true"
       apply_with_weight="true"
       only_selected="false"
       uniform="false" />
    <inkscape:path-effect
       effect="bspline"
       id="path-effect31"
       is_visible="true"
       lpeversion="1.3"
       weight="33.333333"
       steps="2"
       helper_size="0"
       apply_no_weight="true"
       apply_with_weight="true"
       only_selected="false"
       uniform="false" />
    <inkscape:path-effect
       effect="bspline"
       id="path-effect24"
       is_visible="true"
       lpeversion="1.3"
       weight="33.333333"
       steps="2"
       helper_size="0"
       apply_no_weight="true"
       apply_with_weight="true"
       only_selected="false"
       uniform="false" />
    <inkscape:path-effect
       effect="bspline"
       id="path-effect23"
       is_visible="true"
       lpeversion="1.3"
       weight="33.333333"
       steps="2"
       helper_size="0"
       apply_no_weight="true"
       apply_with_weight="true"
       only_selected="false"
       uniform="false" />
    <inkscape:path-effect
       effect="bspline"
       id="path-effect22"
       is_visible="true"
       lpeversion="1.3"
       weight="33.333333"
       steps="2"
       helper_size="0"
       apply_no_weight="true"
       apply_with_weight="true"
       only_selected="false"
       uniform="false" />
    <inkscape:path-effect
       effect="bspline"
       id="path-effect21"
       is_visible="true"
       lpeversion="1.3"
       weight="33.333333"
       steps="2"
       helper_size="0"
       apply_no_weight="true"
       apply_with_weight="true"
       only_selected="false"
       uniform="false" />
    <inkscape:path-effect
       effect="bspline"
       id="path-effect20"
       is_visible="true"
       lpeversion="1.3"
       weight="33.333333"
       steps="2"
       helper_size="0"
       apply_no_weight="true"
       apply_with_weight="true"
       only_selected="false"
       uniform="false" />
    <inkscape:path-effect
       effect="bspline"
       id="path-effect19"
       is_visible="true"
       lpeversion="1.3"
       weight="33.333333"
       steps="2"
       helper_size="0"
       apply_no_weight="true"
       apply_with_weight="true"
       only_selected="false"
       uniform="false" />
    <style
       id="style1">
      path { fill: #0a0a0a; }
      .cls-1 { fill: #caf240; }
    </style>
  </defs>
  <path
     id="path24"
     style="stroke-width:0.943912"
     d="M 224.55859 0.27734375 C 192.52331 2.7458038 160.73474 5.3028731 136.39258 10.541016 C 111.1582 15.971151 93.909808 24.275828 76.980469 41.205078 C 60.051129 58.134328 43.440629 83.68664 31.941406 123.93359 C 20.442183 164.18055 14.05501 219.11952 9.2636719 264.79688 C 5.3921323 301.7055 2.628552 332.18756 0 361.88672 L 0 381.38086 C 0 386.13529 4.3338008 390 9.6875 390 L 139.77734 390 C 145.12104 390 149.46289 386.1442 149.46289 381.38086 L 149.46289 167.5918 L 202.40039 383.22461 C 203.37106 387.17774 207.30428 390 211.85742 390 L 353.06445 390 L 405.48047 176.49414 L 405.48047 390 L 568.13281 390 L 562.12891 13.179688 C 562.12891 6.2082813 558.49657 1.9871339 550.78125 0.78515625 C 548.82989 0.48243685 546.979 0.28710938 545.25781 0.28710938 L 329.25781 0.28710938 C 324.60461 0.28710938 320.60278 3.2327651 319.74219 7.3105469 L 278.5625 201.88867 L 278.5625 201.87891 L 237.38477 7.3027344 C 236.52418 3.2338624 232.5204 0.27734375 227.86719 0.27734375 L 224.55859 0.27734375 z " />
  <path
     id="path38"
     style="stroke-width:0.946859"
     class="cls-1"
     d="M 950.96875 0 C 945.64507 0 941.3418 3.8618502 941.3418 8.6191406 L 941.3418 269.20898 C 949.66923 293.72075 958.73098 317.66491 972.94922 337.625 C 987.48008 358.02397 1007.3889 374.26749 1027.9707 389.99023 L 1105.1953 389.99023 C 1110.509 389.99023 1114.8223 386.13033 1114.8223 381.37305 L 1114.8223 260.22656 L 1140.8301 260.22656 C 1153.4589 260.22656 1164.0665 268.72898 1165.4375 279.97266 C 1167.2588 294.8179 1169.8706 315.94467 1172.4824 335.94141 C 1176.5152 366.82348 1180.0981 379.85899 1188.8242 387.33984 C 1190.8256 389.05104 1193.4764 390 1196.2383 390 L 1344.1309 390 C 1350.8556 390 1355.5101 383.99661 1353.1484 378.36133 L 1353.1484 378.34375 C 1350.1264 371.11375 1346.7626 360.30858 1344.9414 345.33789 C 1338.4869 292.21032 1347.8237 208.61319 1273.8926 193.33789 C 1314.2204 178.06261 1342.5293 142.29773 1342.5293 100.62891 C 1342.5293 72.837718 1329.9515 47.679533 1309.6074 29.474609 C 1289.2633 11.269687 1261.1643 1.1842367e-14 1230.1328 0 L 950.96875 0 z M 1134.3047 87.615234 C 1137.7827 87.702726 1142.0821 88.063354 1147.4258 88.712891 C 1163.9372 90.719727 1182.5698 95.67412 1188.4238 109.91016 C 1193.087 121.27029 1188.7242 144.60998 1172.7031 156.46289 L 1172.6934 156.45312 C 1160.505 165.46601 1147.0749 168.49374 1134.7363 168.35938 C 1128.552 168.28778 1125.5904 167.6797 1122.4082 163.25391 C 1118.8757 158.33535 1117.2044 151.94703 1117.4746 140.64062 C 1117.9449 121.50396 1117.9442 96.427285 1119.0449 93.775391 C 1120.8162 89.548924 1123.8706 87.35276 1134.3047 87.615234 z " />
  <path
     id="path2-4"
     style="stroke-width:0.856376"
     d="M 864.625 50 L 788.73438 50 C 784.04198 50 779.85583 53.15285 778.30273 57.859375 L 737.84766 180.55469 L 704.36133 57.019531 C 703.07403 52.834005 699.40211 50 695.25781 50 L 574.05859 50.724609 C 566.98249 50.724609 564.89021 59.157763 567.46484 66.160156 C 573.36159 82.21353 580.28907 105.67409 588.38672 116.92383 C 600.79481 134.17812 613.43378 153.18945 622.97656 179.57422 C 632.51933 205.95898 661.17333 266.06768 664.66992 272.49609 L 664.66992 390 L 664.67773 390 L 794.05859 390 C 799.04169 390 803.07813 385.7083 803.07812 380.41016 L 803.07812 339.94141 C 803.07812 319.04906 801.22537 292.24036 799.76367 281.95312 C 798.29367 271.66591 795.82733 273.36101 799.26562 266.51758 C 799.91763 265.22277 856.26956 156.95266 888.89844 94.261719 L 864.625 50 z " />
  <path
     id="path44"
     style="stroke-width:0.946859"
     class="cls-1"
     d="M 1365.0156 0 C 1357.5804 0 1352.9483 7.2307127 1356.7109 12.982422 L 1475.8633 195.16602 L 1345.3926 376.71289 C 1341.2697 382.44665 1345.873 390 1353.4883 390 L 1511.377 390 C 1515.4489 390 1519.3534 388.61219 1522.3555 386.14844 C 1545.8809 366.82376 1562.1231 331.37152 1579.0449 292.69531 L 1627.9473 385.07227 C 1629.5384 388.08244 1632.9317 390 1636.6543 390 L 1646.6602 390 C 1665.0543 381.30026 1683.397 371.93245 1701.2227 355.83203 C 1719.8153 339.03845 1737.8464 314.91879 1755.8418 290.35742 L 1686.8281 195.16602 L 1760.4395 91.099609 L 1780.5762 62.628906 C 1774.6155 49.479495 1767.9492 36.590752 1757.1211 25.234375 C 1748.5046 16.197461 1737.2289 8.1399366 1725.0859 0.40234375 C 1711.158 0.77252442 1697.7964 1.482397 1685.5723 2.875 C 1665.0137 5.2170868 1647.66 9.4802239 1630.8711 14.083984 L 1585.9297 98.882812 L 1537.4551 0 L 1365.0156 0 z " />
  <g
     id="g18"
     transform="matrix(0.94558717,0,0,1,-323.48537,-530.88324)">
    <path
       d="m 1452.68,1025.03 c -13.64,0 -26.43,5.1 -36.43,14.33 v -7.3 c 0,-4.83 -3.86,-8.74 -8.63,-8.74 -4.77,0 -8.63,3.91 -8.63,8.74 v 40.44 c -0.39,2.91 -0.61,5.86 -0.54,8.86 l 0.54,22.29 v 43.28 c 0,4.83 3.86,8.74 8.63,8.74 4.77,0 8.63,-3.91 8.63,-8.74 v -73.48 c 1.27,-7.35 4.69,-14.14 9.96,-19.62 7.02,-7.29 16.42,-11.31 26.47,-11.31 20.09,0 36.68,16.56 36.98,36.92 l 1.01,67.62 c 0.07,4.78 3.92,8.61 8.62,8.61 h 0.14 c 4.76,-0.08 8.57,-4.05 8.49,-8.88 l -1.01,-67.62 c -0.45,-29.85 -24.78,-54.14 -54.23,-54.14 z"
       id="path5" />
    <path
       d="m 1183.52,1025.72 c -15.52,0 -29.24,7.81 -37.63,19.72 -8.4,-11.91 -22.12,-19.72 -37.64,-19.72 -10.98,0 -21.06,3.91 -29.01,10.42 v -4.07 c 0,-4.83 -3.86,-8.74 -8.63,-8.74 -4.77,0 -8.63,3.91 -8.63,8.74 v 114.86 c 0,4.83 3.86,8.74 8.63,8.74 4.77,0 8.63,-3.91 8.63,-8.74 v -74.32 c 0,-16.22 13.01,-29.4 29.01,-29.4 16,0 29.01,13.19 29.01,29.4 v 74.32 c 0,4.83 3.86,8.74 8.63,8.74 4.77,0 8.63,-3.91 8.63,-8.74 v -74.32 c 0,-16.22 13.01,-29.4 29.01,-29.4 16,0 29.01,13.19 29.01,29.4 v 74.32 c 0,4.83 3.86,8.74 8.63,8.74 4.77,0 8.63,-3.91 8.63,-8.74 v -74.32 c 0,-25.86 -20.75,-46.89 -46.26,-46.89 v 0 z"
       id="path6" />
    <path
       d="m 1036.63,1029.3 c -20.58,-8.64 -42.2,-3.8 -58.1,11.22 v -8.45 c 0,-4.83 -3.86,-8.74 -8.63,-8.74 -4.77,0 -8.63,3.91 -8.63,8.74 v 114.86 c 0,4.83 3.86,8.74 8.63,8.74 4.77,0 8.63,-3.91 8.63,-8.74 v -76.89 c 10.52,-22.87 31.48,-33 51.5,-24.59 4.4,1.84 9.45,-0.27 11.27,-4.73 1.82,-4.46 -0.26,-9.58 -4.67,-11.42 z"
       id="path7" />
    <path
       d="m 785.37,974.72 h -2.71 c -26.58,0 -48.2,21.92 -48.2,48.86 v 1.39 h -9.64 c -4.76,0 -8.63,3.91 -8.63,8.74 0,4.83 3.86,8.74 8.63,8.74 h 9.64 v 104.47 c 0,4.83 3.86,8.74 8.63,8.74 4.77,0 8.63,-3.91 8.63,-8.74 v -104.47 h 20.81 c 4.76,0 8.63,-3.91 8.63,-8.74 0,-4.83 -3.86,-8.74 -8.63,-8.74 h -20.81 v -1.39 c 0,-17.3 13.88,-31.37 30.95,-31.37 h 2.71 c 4.76,0 8.63,-3.91 8.63,-8.74 0,-4.83 -3.86,-8.74 -8.63,-8.74 v 0 z"
       id="path8" />
    <path
       d="m 700.21,1029.3 c -20.58,-8.64 -42.2,-3.8 -58.1,11.22 v -8.45 c 0,-4.83 -3.86,-8.74 -8.63,-8.74 -4.77,0 -8.63,3.91 -8.63,8.74 v 114.86 c 0,4.83 3.86,8.74 8.63,8.74 4.77,0 8.63,-3.91 8.63,-8.74 v -76.89 c 10.52,-22.87 31.48,-33 51.5,-24.59 4.4,1.84 9.45,-0.27 11.27,-4.73 1.82,-4.46 -0.26,-9.58 -4.67,-11.42 z"
       id="path9" />
    <path
       d="m 876.71,1136.98 c -25.83,0 -46.85,-21.3 -46.85,-47.49 0,-26.19 21.02,-47.48 46.85,-47.48 25.83,0 46.85,21.3 46.85,47.48 0,26.18 -21.02,47.49 -46.85,47.49 z m 0,-112.46 c -35.35,0 -64.1,29.15 -64.1,64.97 0,35.82 28.76,64.97 64.1,64.97 35.34,0 64.1,-29.15 64.1,-64.97 0,-35.82 -28.76,-64.97 -64.1,-64.97 z"
       id="path10" />
    <path
       d="m 1314.11,1136.98 c -25.83,0 -46.85,-21.3 -46.85,-47.49 0,-26.19 21.02,-47.48 46.85,-47.48 25.83,0 46.85,21.3 46.85,47.48 0,26.18 -21.02,47.49 -46.85,47.49 z m 0,-112.46 c -35.35,0 -64.1,29.15 -64.1,64.97 0,35.82 28.76,64.97 64.1,64.97 18.48,0 35.14,-7.97 46.85,-20.69 v 13.15 c 0,4.83 3.86,8.74 8.63,8.74 4.77,0 8.63,-3.91 8.63,-8.74 v -57.43 c 0,-35.82 -28.76,-64.97 -64.1,-64.97 v 0 z"
       id="path11" />
    <path
       d="m 1620.46,1128.4 c -7.9,5.62 -17.19,8.58 -26.88,8.58 -25.83,0 -46.85,-21.3 -46.85,-47.49 0,-26.19 21.02,-47.48 46.85,-47.48 7.8,0 15.52,1.98 22.33,5.72 4.19,2.31 9.43,0.73 11.7,-3.51 2.27,-4.24 0.72,-9.55 -3.46,-11.86 -9.32,-5.13 -19.89,-7.84 -30.56,-7.84 -35.35,0 -64.1,29.15 -64.1,64.97 0,35.82 28.76,64.97 64.1,64.97 13.25,0 25.96,-4.06 36.78,-11.75 3.9,-2.77 4.85,-8.22 2.11,-12.18 -2.74,-3.95 -8.11,-4.91 -12.02,-2.14 v 0 z"
       id="path12" />
    <path
       d="m 2053.56,1136.98 c -25.84,0 -46.85,-21.3 -46.85,-47.49 0,-26.19 21.02,-47.48 46.85,-47.48 25.83,0 46.85,21.3 46.85,47.48 0,26.18 -21.02,47.49 -46.85,47.49 z m 0,-112.46 c -35.35,0 -64.11,29.15 -64.11,64.97 0,35.82 28.76,64.97 64.11,64.97 18.48,0 35.14,-7.97 46.85,-20.69 v 13.15 c 0,4.83 3.86,8.74 8.63,8.74 4.77,0 8.63,-3.91 8.63,-8.74 v -57.43 c 0,-35.82 -28.76,-64.97 -64.1,-64.97 v 0 z"
       id="path13" />
    <path
       d="m 2202.74,1138.18 c -25.83,0 -46.85,-21.3 -46.85,-47.49 0,-26.19 21.02,-47.49 46.85,-47.49 25.83,0 46.85,21.3 46.85,47.49 0,26.19 -21.02,47.49 -46.85,47.49 z m 0,-112.46 c -18.48,0 -35.14,7.97 -46.85,20.69 v -66.04 c 0,-4.83 -3.86,-8.74 -8.63,-8.74 -4.77,0 -8.63,3.91 -8.63,8.74 v 110.32 c 0,35.83 28.76,64.97 64.1,64.97 35.34,0 64.1,-29.15 64.1,-64.97 0,-35.82 -28.76,-64.98 -64.1,-64.98 v 0 z"
       id="path14" />
    <path
       d="m 1961.38,1136.98 h -89.22 v -156.6 c 0,-4.83 -3.86,-8.74 -8.63,-8.74 -4.77,0 -8.63,3.91 -8.63,8.74 v 165.35 c 0,4.83 3.86,8.74 8.63,8.74 h 97.84 c 4.76,0 8.63,-3.91 8.63,-8.74 0,-4.83 -3.86,-8.74 -8.63,-8.74 v 0 z"
       id="path15" />
    <path
       d="M 404.24,1062.02 H 359.36 V 992.2 h 44.88 c 18.99,0 34.44,15.66 34.44,34.91 0,19.25 -15.45,34.91 -34.44,34.91 z m 0,-87.3 h -53.51 c -4.76,0 -8.63,3.91 -8.63,8.74 v 163.46 c 0,4.83 3.86,8.74 8.63,8.74 4.77,0 8.63,-3.91 8.63,-8.74 v -67.42 h 44.88 c 28.5,0 51.69,-23.5 51.69,-52.39 0,-28.89 -23.19,-52.39 -51.69,-52.39 z"
       id="path16" />
    <path
       d="m 1674.23,1080.75 c 4.06,-22.02 23.17,-38.74 46.06,-38.74 22.89,0 41.99,16.72 46.05,38.74 z m 46.06,-56.23 c -35.35,0 -64.11,29.15 -64.11,64.97 0,35.82 28.76,64.97 64.11,64.97 12.38,0 24.39,-3.58 34.75,-10.37 4,-2.62 5.15,-8.03 2.56,-12.09 -2.59,-4.06 -7.93,-5.22 -11.92,-2.6 -7.56,4.95 -16.35,7.57 -25.39,7.57 -22.89,0 -42,-16.72 -46.06,-38.74 h 101.54 c 4.76,0 8.63,-3.91 8.63,-8.74 0,-35.82 -28.76,-64.97 -64.1,-64.97 v 0 z"
       id="path17" />
    <path
       d="m 494.36,1080.73 c 4.06,-22.02 23.17,-38.74 46.05,-38.74 22.88,0 42,16.72 46.06,38.74 z m 46.05,-56.23 c -35.35,0 -64.1,29.15 -64.1,64.97 0,35.82 28.76,64.98 64.1,64.98 12.38,0 24.4,-3.59 34.75,-10.37 4,-2.62 5.15,-8.03 2.56,-12.09 -2.58,-4.06 -7.93,-5.22 -11.93,-2.6 -7.56,4.95 -16.34,7.57 -25.39,7.57 -22.89,0 -42,-16.72 -46.05,-38.75 h 101.53 c 4.76,0 8.63,-3.91 8.63,-8.74 0,-35.83 -28.76,-64.97 -64.1,-64.97 z"
       id="path18" />
  </g>
</svg>
