<?xml version="1.0" encoding="UTF-8" standalone="no"?>
<svg
   id="Layer_1"
   data-name="Layer 1"
   viewBox="0 0 1820.0002 624.7868"
   version="1.1"
   sodipodi:docname="Logo 1.svg"
   inkscape:export-filename="..\..\..\Logo 3.png"
   inkscape:export-xdpi="96"
   inkscape:export-ydpi="96"
   width="1820.0001"
   height="624.7868"
   xmlns:inkscape="http://www.inkscape.org/namespaces/inkscape"
   xmlns:sodipodi="http://sodipodi.sourceforge.net/DTD/sodipodi-0.dtd"
   xmlns="http://www.w3.org/2000/svg"
   xmlns:svg="http://www.w3.org/2000/svg">
  <sodipodi:namedview
     id="namedview18"
     pagecolor="#ffffff"
     bordercolor="#000000"
     borderopacity="0.25"
     inkscape:showpageshadow="2"
     inkscape:pageopacity="0.0"
     inkscape:pagecheckerboard="0"
     inkscape:deskcolor="#d1d1d1"
     inkscape:zoom="0.52178141"
     inkscape:cx="1304.186"
     inkscape:cy="802.06"
     inkscape:window-width="1920"
     inkscape:window-height="1051"
     inkscape:window-x="-9"
     inkscape:window-y="-9"
     inkscape:window-maximized="1"
     inkscape:current-layer="Layer_1" />
  <defs
     id="defs1">
    <style
       id="style1">
      .cls-1 {
        fill: #caf240;
      }
    </style>
  </defs>
  <path
     d="M 278.56301,201.8788 237.38447,7.3025703 c -0.86059,-4.06888 -4.86336,-7.02483005 -9.51659,-7.02483005 H 9.6867139 c -5.3437,0 -9.6867099514601,3.85520005 -9.6867099514601,8.61855005 V 381.38146 c 0,4.75445 4.3329999514601,8.61855 9.6867099514601,8.61855 H 139.77685 c 5.3437,0 9.68671,-3.85519 9.68671,-8.61855 V 167.59157 l 52.93668,215.63291 c 0.97067,3.95313 4.90339,6.77553 9.45655,6.77553 h 141.20784 l 52.41631,-213.50498 v 213.50498 h 162.6527 L 562.12948,13.17886 c 0,-6.9714197 -3.63252,-11.1916397 -11.34786,-12.39361975 -1.95136,-0.30272 -3.80264,-0.49859 -5.52383,-0.49859 H 329.25813 c -4.65322,0 -8.656,2.94704005 -9.51659,7.02483005 L 278.56301,201.8877 Z"
     id="path1"
     style="fill:#ffffff;stroke-width:0.943912"
     inkscape:export-filename="Logo 1.png"
     inkscape:export-xdpi="96"
     inkscape:export-ydpi="96" />
  <path
     d="m 661.3875,390.00001 h 129.3798 c 4.9831,0 9.0195,-4.2915 9.0195,-9.58965 v -40.46905 c 0,-20.89237 -1.8521,-47.70101 -3.3138,-57.98826 -1.47,-10.28723 -3.9367,-8.59183 -0.4984,-15.43527 0.7559,-1.50114 77.5715,-149.08997 103.9159,-199.70496 3.9284,-7.54987 -1.2043,-16.81281 -9.3269,-16.81281 H 785.4435 c -4.6924,0 -8.8783,3.1524 -10.4314,7.85893 l -40.455,122.69634 -33.487,-123.53523 c -1.2873,-4.18553 -4.9583,-7.02004 -9.1026,-7.02004 l -121.19911,0.72408 c -7.07611,0 -9.16904,8.43289 -6.5944,15.43529 5.89675,16.05339 12.82337,39.51536 20.92103,50.76511 12.4081,17.25431 25.04875,36.26583 34.59154,62.65063 9.54278,26.38479 38.19604,86.49232 41.69264,92.92074 v 117.50415"
     id="path2"
     style="fill:#ffffff;stroke-width:0.856376" />
  <path
     class="cls-1"
     d="m 1353.1475,378.34418 c -3.022,-7.23002 -6.3844,-18.03473 -8.2056,-33.00544 -6.4545,-53.12767 2.882,-136.72533 -71.0493,-152.00065 40.328,-15.27532 68.6376,-51.04018 68.6376,-92.7091 0,-27.79124 -12.5787,-52.94848 -32.9228,-71.15344 C 1289.2633,11.27059 1261.1638,1.0253906e-5 1230.1323,1.0253906e-5 H 950.9689 c -5.3237,0 -9.6267,3.861380046094 -9.6267,8.618680046094 V 381.37237 c 0,4.76626 4.313,8.61868 9.6267,8.61868 h 154.2268 c 5.3137,0 9.6267,-3.86138 9.6267,-8.61868 V 260.22698 h 26.008 c 12.6288,0 23.2361,8.50222 24.6071,19.74592 1.8213,14.84528 4.4331,35.97092 7.0449,55.9677 4.0328,30.88213 7.6152,43.91768 16.3413,51.39855 2.0014,1.7112 4.6532,2.66086 7.4151,2.66086 h 147.8925 c 6.7247,0 11.3779,-6.00262 9.0162,-11.63792 z m -180.455,-221.89084 c -12.1884,9.01289 -25.6177,12.04107 -37.9563,11.90669 -6.1843,-0.0716 -9.1463,-0.6809 -12.3285,-5.10671 -3.5325,-4.91856 -5.2036,-11.30642 -4.9334,-22.61285 0.4703,-19.1367 0.4703,-44.21332 1.571,-46.86522 2.3617,-5.6353 7.0049,-7.66006 28.3797,-5.06191 16.5114,2.00684 35.1444,6.96125 40.9984,21.19731 4.6632,11.36017 0.3002,34.69872 -15.7209,46.55165 z"
     id="path3"
     style="stroke-width:0.946859" />
  <path
     class="cls-1"
     d="M 1686.8287,195.16575 1815.5179,13.23265 C 1819.5807,7.4898503 1814.9675,1.0253906e-5 1807.3823,1.0253906e-5 h -163.6834 c -3.2723,0 -6.2444,1.684320046094 -7.6553,4.327260046094 L 1585.9288,98.88196 1537.4552,1.0253906e-5 h -172.4394 c -7.4352,0 -12.0684,7.230020046094 -8.3058,12.981779746094 l 119.1526,182.18396 -130.4704,181.54786 c -4.1229,5.73385 0.4803,13.2864 8.0956,13.2864 h 157.8894 c 4.0728,0 7.9755,-1.38867 10.9776,-3.85242 23.5263,-19.32486 39.7675,-54.77614 56.6893,-93.45271 l 48.9038,92.37761 c 1.5911,3.01026 4.9835,4.92752 8.7061,4.92752 h 173.7003 c 7.6353,0 12.2385,-7.57942 8.0756,-13.31327 z"
     id="path4"
     style="stroke-width:0.946859" />
  <g
     id="g18"
     transform="matrix(0.94558717,0,0,1,-323.48537,-530.88324)"
     style="fill:#ffffff">
    <path
       d="m 1452.68,1025.03 c -13.64,0 -26.43,5.1 -36.43,14.33 v -7.3 c 0,-4.83 -3.86,-8.74 -8.63,-8.74 -4.77,0 -8.63,3.91 -8.63,8.74 v 40.44 c -0.39,2.91 -0.61,5.86 -0.54,8.86 l 0.54,22.29 v 43.28 c 0,4.83 3.86,8.74 8.63,8.74 4.77,0 8.63,-3.91 8.63,-8.74 v -73.48 c 1.27,-7.35 4.69,-14.14 9.96,-19.62 7.02,-7.29 16.42,-11.31 26.47,-11.31 20.09,0 36.68,16.56 36.98,36.92 l 1.01,67.62 c 0.07,4.78 3.92,8.61 8.62,8.61 h 0.14 c 4.76,-0.08 8.57,-4.05 8.49,-8.88 l -1.01,-67.62 c -0.45,-29.85 -24.78,-54.14 -54.23,-54.14 z"
       id="path5"
       style="fill:#ffffff" />
    <path
       d="m 1183.52,1025.72 c -15.52,0 -29.24,7.81 -37.63,19.72 -8.4,-11.91 -22.12,-19.72 -37.64,-19.72 -10.98,0 -21.06,3.91 -29.01,10.42 v -4.07 c 0,-4.83 -3.86,-8.74 -8.63,-8.74 -4.77,0 -8.63,3.91 -8.63,8.74 v 114.86 c 0,4.83 3.86,8.74 8.63,8.74 4.77,0 8.63,-3.91 8.63,-8.74 v -74.32 c 0,-16.22 13.01,-29.4 29.01,-29.4 16,0 29.01,13.19 29.01,29.4 v 74.32 c 0,4.83 3.86,8.74 8.63,8.74 4.77,0 8.63,-3.91 8.63,-8.74 v -74.32 c 0,-16.22 13.01,-29.4 29.01,-29.4 16,0 29.01,13.19 29.01,29.4 v 74.32 c 0,4.83 3.86,8.74 8.63,8.74 4.77,0 8.63,-3.91 8.63,-8.74 v -74.32 c 0,-25.86 -20.75,-46.89 -46.26,-46.89 v 0 z"
       id="path6"
       style="fill:#ffffff" />
    <path
       d="m 1036.63,1029.3 c -20.58,-8.64 -42.2,-3.8 -58.1,11.22 v -8.45 c 0,-4.83 -3.86,-8.74 -8.63,-8.74 -4.77,0 -8.63,3.91 -8.63,8.74 v 114.86 c 0,4.83 3.86,8.74 8.63,8.74 4.77,0 8.63,-3.91 8.63,-8.74 v -76.89 c 10.52,-22.87 31.48,-33 51.5,-24.59 4.4,1.84 9.45,-0.27 11.27,-4.73 1.82,-4.46 -0.26,-9.58 -4.67,-11.42 z"
       id="path7"
       style="fill:#ffffff" />
    <path
       d="m 785.37,974.72 h -2.71 c -26.58,0 -48.2,21.92 -48.2,48.86 v 1.39 h -9.64 c -4.76,0 -8.63,3.91 -8.63,8.74 0,4.83 3.86,8.74 8.63,8.74 h 9.64 v 104.47 c 0,4.83 3.86,8.74 8.63,8.74 4.77,0 8.63,-3.91 8.63,-8.74 v -104.47 h 20.81 c 4.76,0 8.63,-3.91 8.63,-8.74 0,-4.83 -3.86,-8.74 -8.63,-8.74 h -20.81 v -1.39 c 0,-17.3 13.88,-31.37 30.95,-31.37 h 2.71 c 4.76,0 8.63,-3.91 8.63,-8.74 0,-4.83 -3.86,-8.74 -8.63,-8.74 v 0 z"
       id="path8"
       style="fill:#ffffff" />
    <path
       d="m 700.21,1029.3 c -20.58,-8.64 -42.2,-3.8 -58.1,11.22 v -8.45 c 0,-4.83 -3.86,-8.74 -8.63,-8.74 -4.77,0 -8.63,3.91 -8.63,8.74 v 114.86 c 0,4.83 3.86,8.74 8.63,8.74 4.77,0 8.63,-3.91 8.63,-8.74 v -76.89 c 10.52,-22.87 31.48,-33 51.5,-24.59 4.4,1.84 9.45,-0.27 11.27,-4.73 1.82,-4.46 -0.26,-9.58 -4.67,-11.42 z"
       id="path9"
       style="fill:#ffffff" />
    <path
       d="m 876.71,1136.98 c -25.83,0 -46.85,-21.3 -46.85,-47.49 0,-26.19 21.02,-47.48 46.85,-47.48 25.83,0 46.85,21.3 46.85,47.48 0,26.18 -21.02,47.49 -46.85,47.49 z m 0,-112.46 c -35.35,0 -64.1,29.15 -64.1,64.97 0,35.82 28.76,64.97 64.1,64.97 35.34,0 64.1,-29.15 64.1,-64.97 0,-35.82 -28.76,-64.97 -64.1,-64.97 z"
       id="path10"
       style="fill:#ffffff" />
    <path
       d="m 1314.11,1136.98 c -25.83,0 -46.85,-21.3 -46.85,-47.49 0,-26.19 21.02,-47.48 46.85,-47.48 25.83,0 46.85,21.3 46.85,47.48 0,26.18 -21.02,47.49 -46.85,47.49 z m 0,-112.46 c -35.35,0 -64.1,29.15 -64.1,64.97 0,35.82 28.76,64.97 64.1,64.97 18.48,0 35.14,-7.97 46.85,-20.69 v 13.15 c 0,4.83 3.86,8.74 8.63,8.74 4.77,0 8.63,-3.91 8.63,-8.74 v -57.43 c 0,-35.82 -28.76,-64.97 -64.1,-64.97 v 0 z"
       id="path11"
       style="fill:#ffffff" />
    <path
       d="m 1620.46,1128.4 c -7.9,5.62 -17.19,8.58 -26.88,8.58 -25.83,0 -46.85,-21.3 -46.85,-47.49 0,-26.19 21.02,-47.48 46.85,-47.48 7.8,0 15.52,1.98 22.33,5.72 4.19,2.31 9.43,0.73 11.7,-3.51 2.27,-4.24 0.72,-9.55 -3.46,-11.86 -9.32,-5.13 -19.89,-7.84 -30.56,-7.84 -35.35,0 -64.1,29.15 -64.1,64.97 0,35.82 28.76,64.97 64.1,64.97 13.25,0 25.96,-4.06 36.78,-11.75 3.9,-2.77 4.85,-8.22 2.11,-12.18 -2.74,-3.95 -8.11,-4.91 -12.02,-2.14 v 0 z"
       id="path12"
       style="fill:#ffffff" />
    <path
       d="m 2053.56,1136.98 c -25.84,0 -46.85,-21.3 -46.85,-47.49 0,-26.19 21.02,-47.48 46.85,-47.48 25.83,0 46.85,21.3 46.85,47.48 0,26.18 -21.02,47.49 -46.85,47.49 z m 0,-112.46 c -35.35,0 -64.11,29.15 -64.11,64.97 0,35.82 28.76,64.97 64.11,64.97 18.48,0 35.14,-7.97 46.85,-20.69 v 13.15 c 0,4.83 3.86,8.74 8.63,8.74 4.77,0 8.63,-3.91 8.63,-8.74 v -57.43 c 0,-35.82 -28.76,-64.97 -64.1,-64.97 v 0 z"
       id="path13"
       style="fill:#ffffff" />
    <path
       d="m 2202.74,1138.18 c -25.83,0 -46.85,-21.3 -46.85,-47.49 0,-26.19 21.02,-47.49 46.85,-47.49 25.83,0 46.85,21.3 46.85,47.49 0,26.19 -21.02,47.49 -46.85,47.49 z m 0,-112.46 c -18.48,0 -35.14,7.97 -46.85,20.69 v -66.04 c 0,-4.83 -3.86,-8.74 -8.63,-8.74 -4.77,0 -8.63,3.91 -8.63,8.74 v 110.32 c 0,35.83 28.76,64.97 64.1,64.97 35.34,0 64.1,-29.15 64.1,-64.97 0,-35.82 -28.76,-64.98 -64.1,-64.98 v 0 z"
       id="path14"
       style="fill:#ffffff" />
    <path
       d="m 1961.38,1136.98 h -89.22 v -156.6 c 0,-4.83 -3.86,-8.74 -8.63,-8.74 -4.77,0 -8.63,3.91 -8.63,8.74 v 165.35 c 0,4.83 3.86,8.74 8.63,8.74 h 97.84 c 4.76,0 8.63,-3.91 8.63,-8.74 0,-4.83 -3.86,-8.74 -8.63,-8.74 v 0 z"
       id="path15"
       style="fill:#ffffff" />
    <path
       d="M 404.24,1062.02 H 359.36 V 992.2 h 44.88 c 18.99,0 34.44,15.66 34.44,34.91 0,19.25 -15.45,34.91 -34.44,34.91 z m 0,-87.3 h -53.51 c -4.76,0 -8.63,3.91 -8.63,8.74 v 163.46 c 0,4.83 3.86,8.74 8.63,8.74 4.77,0 8.63,-3.91 8.63,-8.74 v -67.42 h 44.88 c 28.5,0 51.69,-23.5 51.69,-52.39 0,-28.89 -23.19,-52.39 -51.69,-52.39 z"
       id="path16"
       style="fill:#ffffff" />
    <path
       d="m 1674.23,1080.75 c 4.06,-22.02 23.17,-38.74 46.06,-38.74 22.89,0 41.99,16.72 46.05,38.74 z m 46.06,-56.23 c -35.35,0 -64.11,29.15 -64.11,64.97 0,35.82 28.76,64.97 64.11,64.97 12.38,0 24.39,-3.58 34.75,-10.37 4,-2.62 5.15,-8.03 2.56,-12.09 -2.59,-4.06 -7.93,-5.22 -11.92,-2.6 -7.56,4.95 -16.35,7.57 -25.39,7.57 -22.89,0 -42,-16.72 -46.06,-38.74 h 101.54 c 4.76,0 8.63,-3.91 8.63,-8.74 0,-35.82 -28.76,-64.97 -64.1,-64.97 v 0 z"
       id="path17"
       style="fill:#ffffff" />
    <path
       d="m 494.36,1080.73 c 4.06,-22.02 23.17,-38.74 46.05,-38.74 22.88,0 42,16.72 46.06,38.74 z m 46.05,-56.23 c -35.35,0 -64.1,29.15 -64.1,64.97 0,35.82 28.76,64.98 64.1,64.98 12.38,0 24.4,-3.59 34.75,-10.37 4,-2.62 5.15,-8.03 2.56,-12.09 -2.58,-4.06 -7.93,-5.22 -11.93,-2.6 -7.56,4.95 -16.34,7.57 -25.39,7.57 -22.89,0 -42,-16.72 -46.05,-38.75 h 101.53 c 4.76,0 8.63,-3.91 8.63,-8.74 0,-35.83 -28.76,-64.97 -64.1,-64.97 z"
       id="path18"
       style="fill:#ffffff" />
  </g>
</svg>
