<?xml version="1.0" encoding="UTF-8" standalone="no"?>
<svg
   id="Layer_1"
   data-name="Layer 1"
   viewBox="0 0 1070.0002 1070.0001"
   version="1.1"
   sodipodi:docname="Logo 1.svg"
   inkscape:export-filename="..\..\..\Logo 3.png"
   inkscape:export-xdpi="96"
   inkscape:export-ydpi="96"
   width="1070.0001"
   height="1070.0001"
   xmlns:inkscape="http://www.inkscape.org/namespaces/inkscape"
   xmlns:sodipodi="http://sodipodi.sourceforge.net/DTD/sodipodi-0.dtd"
   xmlns="http://www.w3.org/2000/svg"
   xmlns:svg="http://www.w3.org/2000/svg">
  <sodipodi:namedview
     id="namedview18"
     pagecolor="#ffffff"
     bordercolor="#000000"
     borderopacity="0.25"
     inkscape:showpageshadow="2"
     inkscape:pageopacity="0.0"
     inkscape:pagecheckerboard="0"
     inkscape:deskcolor="#d1d1d1"
     inkscape:zoom="0.52178141"
     inkscape:cx="1304.186"
     inkscape:cy="802.06"
     inkscape:window-width="1920"
     inkscape:window-height="1051"
     inkscape:window-x="-9"
     inkscape:window-y="-9"
     inkscape:window-maximized="1"
     inkscape:current-layer="Layer_1" />
  <defs
     id="defs1">
    <style
       id="style1">
      .cls-1 {
        fill: #caf240;
      }
    </style>
  </defs>
  <rect
     style="opacity:1;fill:#0d0f11;fill-opacity:1;stroke:#000000;stroke-width:0.428384"
     id="rect1"
     width="1069.5717"
     height="1069.5717"
     x="0.21421216"
     y="0.21420288" />
  <g
     id="g1"
     transform="translate(-299.30045,-328.29941)">
    <path
       d="M 620.66301,692.76204 579.48447,498.18581 c -0.86059,-4.06888 -4.86336,-7.02483 -9.51659,-7.02483 H 351.78671 c -5.3437,0 -9.68671,3.8552 -9.68671,8.61855 V 872.2647 c 0,4.75445 4.333,8.61855 9.68671,8.61855 h 130.09014 c 5.3437,0 9.68671,-3.85519 9.68671,-8.61855 V 658.47481 l 52.93668,215.63291 c 0.97067,3.95313 4.90339,6.77553 9.45655,6.77553 h 141.20784 l 52.41631,-213.50498 v 213.50498 h 162.6527 L 904.22948,504.0621 c 0,-6.97142 -3.63252,-11.19164 -11.34786,-12.39362 -1.95136,-0.30272 -3.80264,-0.49859 -5.52383,-0.49859 H 671.35813 c -4.65322,0 -8.656,2.94704 -9.51659,7.02483 l -41.17853,194.57622 z"
       id="path1"
       style="fill:#ffffff;stroke-width:0.943912"
       inkscape:export-filename="Logo 2.png"
       inkscape:export-xdpi="96"
       inkscape:export-ydpi="96" />
    <path
       d="m 1003.4875,880.88325 h 129.3798 c 4.9831,0 9.0195,-4.2915 9.0195,-9.58965 v -40.46905 c 0,-20.89237 -1.8521,-47.70101 -3.3138,-57.98826 -1.47,-10.28723 -3.9367,-8.59183 -0.4984,-15.43527 0.7559,-1.50114 77.5715,-149.08997 103.9159,-199.70496 3.9284,-7.54987 -1.2043,-16.81281 -9.3269,-16.81281 h -105.1201 c -4.6924,0 -8.8783,3.1524 -10.4314,7.85893 l -40.455,122.69634 -33.487,-123.53523 c -1.2873,-4.18553 -4.9583,-7.02004 -9.1026,-7.02004 l -121.19911,0.72408 c -7.07611,0 -9.16904,8.43289 -6.5944,15.43529 5.89675,16.05339 12.82337,39.51536 20.92103,50.76511 12.4081,17.25431 25.04875,36.26583 34.59154,62.65063 9.54278,26.38479 38.19604,86.49232 41.69264,92.92074 v 117.50415"
       id="path2"
       style="fill:#ffffff;stroke-width:0.856376" />
    <path
       class="cls-1"
       d="m 859.64855,1223.782 c -3.022,-7.23 -6.3844,-18.0347 -8.2056,-33.0054 -6.4545,-53.1277 2.882,-136.7253 -71.0493,-152.0007 40.328,-15.2753 68.6376,-51.04015 68.6376,-92.70907 0,-27.79124 -12.5787,-52.94848 -32.9228,-71.15344 -20.3441,-18.20496 -48.4436,-29.47554 -79.4751,-29.47554 h -279.1634 c -5.3237,0 -9.6267,3.86138 -9.6267,8.61868 v 372.75367 c 0,4.7663 4.313,8.6187 9.6267,8.6187 h 154.2268 c 5.3137,0 9.6267,-3.8614 9.6267,-8.6187 v -121.1454 h 26.008 c 12.6288,0 23.2361,8.5022 24.6071,19.7459 1.8213,14.8453 4.4331,35.971 7.0449,55.9677 4.0328,30.8822 7.6152,43.9177 16.3413,51.3986 2.0014,1.7112 4.6532,2.6609 7.4151,2.6609 h 147.8925 c 6.7247,0 11.3779,-6.0027 9.0162,-11.638 z m -180.455,-221.8908 c -12.1884,9.0129 -25.6177,12.0411 -37.9563,11.9067 -6.1843,-0.072 -9.1463,-0.6809 -12.3285,-5.1067 -3.5325,-4.9186 -5.2036,-11.30646 -4.9334,-22.61289 0.4703,-19.1367 0.4703,-44.21332 1.571,-46.86522 2.3617,-5.6353 7.0049,-7.66006 28.3797,-5.06191 16.5114,2.00684 35.1444,6.96125 40.9984,21.19731 4.6632,11.36017 0.3002,34.69872 -15.7209,46.55161 z"
       id="path3"
       style="stroke-width:0.946859" />
    <path
       class="cls-1"
       d="m 1193.3297,1040.6036 128.6892,-181.93311 c 4.0628,-5.7428 -0.5504,-13.23264 -8.1356,-13.23264 h -163.6834 c -3.2723,0 -6.2444,1.68432 -7.6553,4.32726 l -50.1148,94.55469 -48.4736,-98.88195 H 871.51685 c -7.4352,0 -12.0684,7.23002 -8.3058,12.98178 l 119.1526,182.18397 -130.4704,181.5479 c -4.1229,5.7338 0.4803,13.2864 8.0956,13.2864 h 157.88935 c 4.0728,0 7.9755,-1.3887 10.9776,-3.8525 23.5263,-19.3248 39.7675,-54.7761 56.6893,-93.4527 l 48.9038,92.3776 c 1.5911,3.0103 4.9835,4.9276 8.7061,4.9276 h 173.7003 c 7.6353,0 12.2385,-7.5795 8.0756,-13.3133 z"
       id="path4"
       style="stroke-width:0.946859" />
  </g>
</svg>
